ISO-10303-21;
HEADER;
/* Generated by software containing ST-Developer
 * from STEP Tools, Inc. (www.steptools.com) 
 */

FILE_DESCRIPTION(
/* description */ (''),
/* implementation_level */ '2;1');

FILE_NAME(
/* name */ 'Top_Part.step',
/* time_stamp */ '2026-08-12T17:52:58+05:30',
/* author */ (''),
/* organization */ (''),
/* preprocessor_version */ 'ST-DEVELOPER v20.1',
/* originating_system */ 'Autodesk Translation Framework v15.8.0.0',
/* authorisation */ '');

FILE_SCHEMA (('AUTOMOTIVE_DESIGN { 1 0 10303 214 3 1 1 }'));
ENDSEC;

DATA;
#10=MECHANICAL_DESIGN_GEOMETRIC_PRESENTATION_REPRESENTATION('',(#13,#14),
#1511);
#11=SHAPE_REPRESENTATION_RELATIONSHIP('SRR','None',#1518,#12);
#12=ADVANCED_BREP_SHAPE_REPRESENTATION('',(#15,#16),#1510);
#13=STYLED_ITEM('',(#1527),#15);
#14=STYLED_ITEM('',(#1527),#16);
#15=MANIFOLD_SOLID_BREP('Body13',#874);
#16=MANIFOLD_SOLID_BREP('Body17',#875);
#17=FACE_BOUND('',#135,.T.);
#18=FACE_BOUND('',#136,.T.);
#19=FACE_BOUND('',#137,.T.);
#20=FACE_BOUND('',#138,.T.);
#21=FACE_BOUND('',#139,.T.);
#22=FACE_BOUND('',#141,.T.);
#23=FACE_BOUND('',#142,.T.);
#24=FACE_BOUND('',#143,.T.);
#25=FACE_BOUND('',#144,.T.);
#26=FACE_BOUND('',#145,.T.);
#27=FACE_BOUND('',#150,.T.);
#28=FACE_BOUND('',#155,.T.);
#29=FACE_BOUND('',#160,.T.);
#30=FACE_BOUND('',#175,.T.);
#31=FACE_BOUND('',#176,.T.);
#32=FACE_BOUND('',#177,.T.);
#33=FACE_BOUND('',#178,.T.);
#34=FACE_BOUND('',#179,.T.);
#35=FACE_BOUND('',#181,.T.);
#36=FACE_BOUND('',#182,.T.);
#37=FACE_BOUND('',#183,.T.);
#38=FACE_BOUND('',#184,.T.);
#39=FACE_BOUND('',#185,.T.);
#40=FACE_BOUND('',#186,.T.);
#41=FACE_BOUND('',#187,.T.);
#42=FACE_BOUND('',#188,.T.);
#43=PLANE('',#892);
#44=PLANE('',#896);
#45=PLANE('',#900);
#46=PLANE('',#904);
#47=PLANE('',#917);
#48=PLANE('',#921);
#49=PLANE('',#925);
#50=PLANE('',#929);
#51=PLANE('',#933);
#52=PLANE('',#934);
#53=PLANE('',#938);
#54=PLANE('',#942);
#55=PLANE('',#946);
#56=PLANE('',#950);
#57=PLANE('',#954);
#58=PLANE('',#958);
#59=PLANE('',#974);
#60=PLANE('',#978);
#61=PLANE('',#982);
#62=PLANE('',#986);
#63=PLANE('',#990);
#64=PLANE('',#991);
#65=FACE_OUTER_BOUND('',#114,.T.);
#66=FACE_OUTER_BOUND('',#115,.T.);
#67=FACE_OUTER_BOUND('',#116,.T.);
#68=FACE_OUTER_BOUND('',#117,.T.);
#69=FACE_OUTER_BOUND('',#118,.T.);
#70=FACE_OUTER_BOUND('',#119,.T.);
#71=FACE_OUTER_BOUND('',#120,.T.);
#72=FACE_OUTER_BOUND('',#121,.T.);
#73=FACE_OUTER_BOUND('',#122,.T.);
#74=FACE_OUTER_BOUND('',#123,.T.);
#75=FACE_OUTER_BOUND('',#124,.T.);
#76=FACE_OUTER_BOUND('',#125,.T.);
#77=FACE_OUTER_BOUND('',#126,.T.);
#78=FACE_OUTER_BOUND('',#127,.T.);
#79=FACE_OUTER_BOUND('',#128,.T.);
#80=FACE_OUTER_BOUND('',#129,.T.);
#81=FACE_OUTER_BOUND('',#130,.T.);
#82=FACE_OUTER_BOUND('',#131,.T.);
#83=FACE_OUTER_BOUND('',#132,.T.);
#84=FACE_OUTER_BOUND('',#133,.T.);
#85=FACE_OUTER_BOUND('',#134,.T.);
#86=FACE_OUTER_BOUND('',#140,.T.);
#87=FACE_OUTER_BOUND('',#146,.T.);
#88=FACE_OUTER_BOUND('',#147,.T.);
#89=FACE_OUTER_BOUND('',#148,.T.);
#90=FACE_OUTER_BOUND('',#149,.T.);
#91=FACE_OUTER_BOUND('',#151,.T.);
#92=FACE_OUTER_BOUND('',#152,.T.);
#93=FACE_OUTER_BOUND('',#153,.T.);
#94=FACE_OUTER_BOUND('',#154,.T.);
#95=FACE_OUTER_BOUND('',#156,.T.);
#96=FACE_OUTER_BOUND('',#157,.T.);
#97=FACE_OUTER_BOUND('',#158,.T.);
#98=FACE_OUTER_BOUND('',#159,.T.);
#99=FACE_OUTER_BOUND('',#161,.T.);
#100=FACE_OUTER_BOUND('',#162,.T.);
#101=FACE_OUTER_BOUND('',#163,.T.);
#102=FACE_OUTER_BOUND('',#164,.T.);
#103=FACE_OUTER_BOUND('',#165,.T.);
#104=FACE_OUTER_BOUND('',#166,.T.);
#105=FACE_OUTER_BOUND('',#167,.T.);
#106=FACE_OUTER_BOUND('',#168,.T.);
#107=FACE_OUTER_BOUND('',#169,.T.);
#108=FACE_OUTER_BOUND('',#170,.T.);
#109=FACE_OUTER_BOUND('',#171,.T.);
#110=FACE_OUTER_BOUND('',#172,.T.);
#111=FACE_OUTER_BOUND('',#173,.T.);
#112=FACE_OUTER_BOUND('',#174,.T.);
#113=FACE_OUTER_BOUND('',#180,.T.);
#114=EDGE_LOOP('',(#564,#565,#566,#567));
#115=EDGE_LOOP('',(#568,#569,#570,#571));
#116=EDGE_LOOP('',(#572,#573,#574,#575));
#117=EDGE_LOOP('',(#576,#577,#578,#579));
#118=EDGE_LOOP('',(#580,#581,#582,#583));
#119=EDGE_LOOP('',(#584,#585,#586,#587));
#120=EDGE_LOOP('',(#588,#589,#590,#591));
#121=EDGE_LOOP('',(#592,#593,#594,#595));
#122=EDGE_LOOP('',(#596,#597,#598,#599));
#123=EDGE_LOOP('',(#600,#601,#602,#603));
#124=EDGE_LOOP('',(#604,#605,#606,#607));
#125=EDGE_LOOP('',(#608,#609,#610,#611));
#126=EDGE_LOOP('',(#612,#613,#614,#615));
#127=EDGE_LOOP('',(#616,#617,#618,#619));
#128=EDGE_LOOP('',(#620,#621,#622,#623));
#129=EDGE_LOOP('',(#624,#625,#626,#627));
#130=EDGE_LOOP('',(#628,#629,#630,#631));
#131=EDGE_LOOP('',(#632,#633,#634,#635));
#132=EDGE_LOOP('',(#636,#637,#638,#639));
#133=EDGE_LOOP('',(#640,#641,#642,#643));
#134=EDGE_LOOP('',(#644,#645,#646,#647,#648,#649,#650,#651));
#135=EDGE_LOOP('',(#652));
#136=EDGE_LOOP('',(#653));
#137=EDGE_LOOP('',(#654));
#138=EDGE_LOOP('',(#655,#656,#657,#658,#659,#660,#661,#662));
#139=EDGE_LOOP('',(#663));
#140=EDGE_LOOP('',(#664,#665,#666,#667,#668,#669,#670,#671));
#141=EDGE_LOOP('',(#672));
#142=EDGE_LOOP('',(#673));
#143=EDGE_LOOP('',(#674));
#144=EDGE_LOOP('',(#675,#676,#677,#678,#679,#680,#681,#682));
#145=EDGE_LOOP('',(#683));
#146=EDGE_LOOP('',(#684,#685,#686,#687));
#147=EDGE_LOOP('',(#688));
#148=EDGE_LOOP('',(#689,#690,#691,#692));
#149=EDGE_LOOP('',(#693));
#150=EDGE_LOOP('',(#694));
#151=EDGE_LOOP('',(#695,#696,#697,#698));
#152=EDGE_LOOP('',(#699));
#153=EDGE_LOOP('',(#700,#701,#702,#703));
#154=EDGE_LOOP('',(#704));
#155=EDGE_LOOP('',(#705));
#156=EDGE_LOOP('',(#706,#707,#708,#709));
#157=EDGE_LOOP('',(#710));
#158=EDGE_LOOP('',(#711,#712,#713,#714));
#159=EDGE_LOOP('',(#715));
#160=EDGE_LOOP('',(#716));
#161=EDGE_LOOP('',(#717,#718,#719,#720));
#162=EDGE_LOOP('',(#721,#722,#723,#724));
#163=EDGE_LOOP('',(#725,#726,#727,#728));
#164=EDGE_LOOP('',(#729,#730,#731,#732));
#165=EDGE_LOOP('',(#733,#734,#735,#736));
#166=EDGE_LOOP('',(#737,#738,#739,#740));
#167=EDGE_LOOP('',(#741,#742,#743,#744));
#168=EDGE_LOOP('',(#745,#746,#747,#748));
#169=EDGE_LOOP('',(#749,#750,#751,#752));
#170=EDGE_LOOP('',(#753,#754,#755,#756));
#171=EDGE_LOOP('',(#757,#758,#759,#760));
#172=EDGE_LOOP('',(#761,#762,#763,#764));
#173=EDGE_LOOP('',(#765,#766,#767,#768));
#174=EDGE_LOOP('',(#769,#770,#771,#772,#773,#774,#775,#776));
#175=EDGE_LOOP('',(#777));
#176=EDGE_LOOP('',(#778));
#177=EDGE_LOOP('',(#779));
#178=EDGE_LOOP('',(#780));
#179=EDGE_LOOP('',(#781));
#180=EDGE_LOOP('',(#782,#783,#784,#785,#786,#787,#788,#789));
#181=EDGE_LOOP('',(#790));
#182=EDGE_LOOP('',(#791));
#183=EDGE_LOOP('',(#792));
#184=EDGE_LOOP('',(#793));
#185=EDGE_LOOP('',(#794));
#186=EDGE_LOOP('',(#795));
#187=EDGE_LOOP('',(#796));
#188=EDGE_LOOP('',(#797));
#189=LINE('',#1268,#252);
#190=LINE('',#1273,#253);
#191=LINE('',#1275,#254);
#192=LINE('',#1277,#255);
#193=LINE('',#1278,#256);
#194=LINE('',#1284,#257);
#195=LINE('',#1287,#258);
#196=LINE('',#1289,#259);
#197=LINE('',#1290,#260);
#198=LINE('',#1296,#261);
#199=LINE('',#1299,#262);
#200=LINE('',#1301,#263);
#201=LINE('',#1302,#264);
#202=LINE('',#1308,#265);
#203=LINE('',#1311,#266);
#204=LINE('',#1313,#267);
#205=LINE('',#1314,#268);
#206=LINE('',#1322,#269);
#207=LINE('',#1328,#270);
#208=LINE('',#1334,#271);
#209=LINE('',#1339,#272);
#210=LINE('',#1341,#273);
#211=LINE('',#1343,#274);
#212=LINE('',#1344,#275);
#213=LINE('',#1350,#276);
#214=LINE('',#1353,#277);
#215=LINE('',#1355,#278);
#216=LINE('',#1356,#279);
#217=LINE('',#1362,#280);
#218=LINE('',#1365,#281);
#219=LINE('',#1367,#282);
#220=LINE('',#1368,#283);
#221=LINE('',#1374,#284);
#222=LINE('',#1377,#285);
#223=LINE('',#1379,#286);
#224=LINE('',#1380,#287);
#225=LINE('',#1390,#288);
#226=LINE('',#1397,#289);
#227=LINE('',#1404,#290);
#228=LINE('',#1411,#291);
#229=LINE('',#1418,#292);
#230=LINE('',#1425,#293);
#231=LINE('',#1432,#294);
#232=LINE('',#1438,#295);
#233=LINE('',#1444,#296);
#234=LINE('',#1450,#297);
#235=LINE('',#1456,#298);
#236=LINE('',#1461,#299);
#237=LINE('',#1463,#300);
#238=LINE('',#1465,#301);
#239=LINE('',#1466,#302);
#240=LINE('',#1472,#303);
#241=LINE('',#1475,#304);
#242=LINE('',#1477,#305);
#243=LINE('',#1478,#306);
#244=LINE('',#1484,#307);
#245=LINE('',#1487,#308);
#246=LINE('',#1489,#309);
#247=LINE('',#1490,#310);
#248=LINE('',#1496,#311);
#249=LINE('',#1499,#312);
#250=LINE('',#1501,#313);
#251=LINE('',#1502,#314);
#252=VECTOR('',#998,1.6);
#253=VECTOR('',#1003,10.);
#254=VECTOR('',#1004,10.);
#255=VECTOR('',#1005,10.);
#256=VECTOR('',#1006,10.);
#257=VECTOR('',#1013,10.);
#258=VECTOR('',#1016,10.);
#259=VECTOR('',#1017,10.);
#260=VECTOR('',#1018,10.);
#261=VECTOR('',#1025,10.);
#262=VECTOR('',#1028,10.);
#263=VECTOR('',#1029,10.);
#264=VECTOR('',#1030,10.);
#265=VECTOR('',#1037,10.);
#266=VECTOR('',#1040,10.);
#267=VECTOR('',#1041,10.);
#268=VECTOR('',#1042,10.);
#269=VECTOR('',#1053,1.6);
#270=VECTOR('',#1060,1.6);
#271=VECTOR('',#1067,1.6);
#272=VECTOR('',#1072,10.);
#273=VECTOR('',#1073,10.);
#274=VECTOR('',#1074,10.);
#275=VECTOR('',#1075,10.);
#276=VECTOR('',#1082,10.);
#277=VECTOR('',#1085,10.);
#278=VECTOR('',#1086,10.);
#279=VECTOR('',#1087,10.);
#280=VECTOR('',#1094,10.);
#281=VECTOR('',#1097,10.);
#282=VECTOR('',#1098,10.);
#283=VECTOR('',#1099,10.);
#284=VECTOR('',#1106,10.);
#285=VECTOR('',#1109,10.);
#286=VECTOR('',#1110,10.);
#287=VECTOR('',#1111,10.);
#288=VECTOR('',#1126,1.25);
#289=VECTOR('',#1135,1.99999999999999);
#290=VECTOR('',#1144,1.25);
#291=VECTOR('',#1153,1.99999999999999);
#292=VECTOR('',#1162,1.25);
#293=VECTOR('',#1171,2.00000000000001);
#294=VECTOR('',#1180,6.09999999999999);
#295=VECTOR('',#1187,2.6);
#296=VECTOR('',#1194,2.6);
#297=VECTOR('',#1201,2.6);
#298=VECTOR('',#1208,6.10000000000001);
#299=VECTOR('',#1213,10.);
#300=VECTOR('',#1214,10.);
#301=VECTOR('',#1215,10.);
#302=VECTOR('',#1216,10.);
#303=VECTOR('',#1223,10.);
#304=VECTOR('',#1226,10.);
#305=VECTOR('',#1227,10.);
#306=VECTOR('',#1228,10.);
#307=VECTOR('',#1235,10.);
#308=VECTOR('',#1238,10.);
#309=VECTOR('',#1239,10.);
#310=VECTOR('',#1240,10.);
#311=VECTOR('',#1247,10.);
#312=VECTOR('',#1250,10.);
#313=VECTOR('',#1251,10.);
#314=VECTOR('',#1252,10.);
#315=CIRCLE('',#890,1.6);
#316=CIRCLE('',#891,1.6);
#317=CIRCLE('',#894,3.00000000000004);
#318=CIRCLE('',#895,3.00000000000004);
#319=CIRCLE('',#898,3.00000000000004);
#320=CIRCLE('',#899,3.00000000000004);
#321=CIRCLE('',#902,2.99999999999998);
#322=CIRCLE('',#903,2.99999999999998);
#323=CIRCLE('',#906,3.);
#324=CIRCLE('',#907,3.);
#325=CIRCLE('',#909,1.6);
#326=CIRCLE('',#910,1.6);
#327=CIRCLE('',#912,1.6);
#328=CIRCLE('',#913,1.6);
#329=CIRCLE('',#915,1.6);
#330=CIRCLE('',#916,1.6);
#331=CIRCLE('',#919,5.00000000000001);
#332=CIRCLE('',#920,5.00000000000001);
#333=CIRCLE('',#923,5.00000000000002);
#334=CIRCLE('',#924,5.00000000000002);
#335=CIRCLE('',#927,5.);
#336=CIRCLE('',#928,5.);
#337=CIRCLE('',#931,4.99999999999999);
#338=CIRCLE('',#932,4.99999999999999);
#339=CIRCLE('',#936,1.25);
#340=CIRCLE('',#937,1.25);
#341=CIRCLE('',#940,1.99999999999999);
#342=CIRCLE('',#941,1.99999999999999);
#343=CIRCLE('',#944,1.25);
#344=CIRCLE('',#945,1.25);
#345=CIRCLE('',#948,1.99999999999999);
#346=CIRCLE('',#949,1.99999999999999);
#347=CIRCLE('',#952,1.25);
#348=CIRCLE('',#953,1.25);
#349=CIRCLE('',#956,2.00000000000001);
#350=CIRCLE('',#957,2.00000000000001);
#351=CIRCLE('',#960,6.09999999999999);
#352=CIRCLE('',#961,6.09999999999999);
#353=CIRCLE('',#963,2.6);
#354=CIRCLE('',#964,2.6);
#355=CIRCLE('',#966,2.6);
#356=CIRCLE('',#967,2.6);
#357=CIRCLE('',#969,2.6);
#358=CIRCLE('',#970,2.6);
#359=CIRCLE('',#972,6.10000000000001);
#360=CIRCLE('',#973,6.10000000000001);
#361=CIRCLE('',#976,2.99999999999998);
#362=CIRCLE('',#977,2.99999999999998);
#363=CIRCLE('',#980,3.00000000000004);
#364=CIRCLE('',#981,3.00000000000004);
#365=CIRCLE('',#984,3.00000000000004);
#366=CIRCLE('',#985,3.00000000000004);
#367=CIRCLE('',#988,3.);
#368=CIRCLE('',#989,3.);
#369=VERTEX_POINT('',#1265);
#370=VERTEX_POINT('',#1267);
#371=VERTEX_POINT('',#1271);
#372=VERTEX_POINT('',#1272);
#373=VERTEX_POINT('',#1274);
#374=VERTEX_POINT('',#1276);
#375=VERTEX_POINT('',#1280);
#376=VERTEX_POINT('',#1282);
#377=VERTEX_POINT('',#1286);
#378=VERTEX_POINT('',#1288);
#379=VERTEX_POINT('',#1292);
#380=VERTEX_POINT('',#1294);
#381=VERTEX_POINT('',#1298);
#382=VERTEX_POINT('',#1300);
#383=VERTEX_POINT('',#1304);
#384=VERTEX_POINT('',#1306);
#385=VERTEX_POINT('',#1310);
#386=VERTEX_POINT('',#1312);
#387=VERTEX_POINT('',#1319);
#388=VERTEX_POINT('',#1321);
#389=VERTEX_POINT('',#1325);
#390=VERTEX_POINT('',#1327);
#391=VERTEX_POINT('',#1331);
#392=VERTEX_POINT('',#1333);
#393=VERTEX_POINT('',#1337);
#394=VERTEX_POINT('',#1338);
#395=VERTEX_POINT('',#1340);
#396=VERTEX_POINT('',#1342);
#397=VERTEX_POINT('',#1346);
#398=VERTEX_POINT('',#1348);
#399=VERTEX_POINT('',#1352);
#400=VERTEX_POINT('',#1354);
#401=VERTEX_POINT('',#1358);
#402=VERTEX_POINT('',#1360);
#403=VERTEX_POINT('',#1364);
#404=VERTEX_POINT('',#1366);
#405=VERTEX_POINT('',#1370);
#406=VERTEX_POINT('',#1372);
#407=VERTEX_POINT('',#1376);
#408=VERTEX_POINT('',#1378);
#409=VERTEX_POINT('',#1387);
#410=VERTEX_POINT('',#1389);
#411=VERTEX_POINT('',#1394);
#412=VERTEX_POINT('',#1396);
#413=VERTEX_POINT('',#1401);
#414=VERTEX_POINT('',#1403);
#415=VERTEX_POINT('',#1408);
#416=VERTEX_POINT('',#1410);
#417=VERTEX_POINT('',#1415);
#418=VERTEX_POINT('',#1417);
#419=VERTEX_POINT('',#1422);
#420=VERTEX_POINT('',#1424);
#421=VERTEX_POINT('',#1429);
#422=VERTEX_POINT('',#1431);
#423=VERTEX_POINT('',#1435);
#424=VERTEX_POINT('',#1437);
#425=VERTEX_POINT('',#1441);
#426=VERTEX_POINT('',#1443);
#427=VERTEX_POINT('',#1447);
#428=VERTEX_POINT('',#1449);
#429=VERTEX_POINT('',#1453);
#430=VERTEX_POINT('',#1455);
#431=VERTEX_POINT('',#1459);
#432=VERTEX_POINT('',#1460);
#433=VERTEX_POINT('',#1462);
#434=VERTEX_POINT('',#1464);
#435=VERTEX_POINT('',#1468);
#436=VERTEX_POINT('',#1470);
#437=VERTEX_POINT('',#1474);
#438=VERTEX_POINT('',#1476);
#439=VERTEX_POINT('',#1480);
#440=VERTEX_POINT('',#1482);
#441=VERTEX_POINT('',#1486);
#442=VERTEX_POINT('',#1488);
#443=VERTEX_POINT('',#1492);
#444=VERTEX_POINT('',#1494);
#445=VERTEX_POINT('',#1498);
#446=VERTEX_POINT('',#1500);
#447=EDGE_CURVE('',#369,#369,#315,.T.);
#448=EDGE_CURVE('',#369,#370,#189,.T.);
#449=EDGE_CURVE('',#370,#370,#316,.T.);
#450=EDGE_CURVE('',#371,#372,#190,.T.);
#451=EDGE_CURVE('',#371,#373,#191,.T.);
#452=EDGE_CURVE('',#374,#373,#192,.T.);
#453=EDGE_CURVE('',#372,#374,#193,.T.);
#454=EDGE_CURVE('',#372,#375,#317,.T.);
#455=EDGE_CURVE('',#376,#374,#318,.T.);
#456=EDGE_CURVE('',#375,#376,#194,.T.);
#457=EDGE_CURVE('',#375,#377,#195,.T.);
#458=EDGE_CURVE('',#378,#376,#196,.T.);
#459=EDGE_CURVE('',#377,#378,#197,.T.);
#460=EDGE_CURVE('',#377,#379,#319,.T.);
#461=EDGE_CURVE('',#380,#378,#320,.T.);
#462=EDGE_CURVE('',#379,#380,#198,.T.);
#463=EDGE_CURVE('',#379,#381,#199,.T.);
#464=EDGE_CURVE('',#382,#380,#200,.T.);
#465=EDGE_CURVE('',#381,#382,#201,.T.);
#466=EDGE_CURVE('',#381,#383,#321,.T.);
#467=EDGE_CURVE('',#384,#382,#322,.T.);
#468=EDGE_CURVE('',#383,#384,#202,.T.);
#469=EDGE_CURVE('',#383,#385,#203,.T.);
#470=EDGE_CURVE('',#386,#384,#204,.T.);
#471=EDGE_CURVE('',#385,#386,#205,.T.);
#472=EDGE_CURVE('',#385,#371,#323,.T.);
#473=EDGE_CURVE('',#373,#386,#324,.T.);
#474=EDGE_CURVE('',#387,#387,#325,.T.);
#475=EDGE_CURVE('',#387,#388,#206,.T.);
#476=EDGE_CURVE('',#388,#388,#326,.T.);
#477=EDGE_CURVE('',#389,#389,#327,.T.);
#478=EDGE_CURVE('',#389,#390,#207,.T.);
#479=EDGE_CURVE('',#390,#390,#328,.T.);
#480=EDGE_CURVE('',#391,#391,#329,.T.);
#481=EDGE_CURVE('',#391,#392,#208,.T.);
#482=EDGE_CURVE('',#392,#392,#330,.T.);
#483=EDGE_CURVE('',#393,#394,#209,.T.);
#484=EDGE_CURVE('',#393,#395,#210,.T.);
#485=EDGE_CURVE('',#396,#395,#211,.T.);
#486=EDGE_CURVE('',#394,#396,#212,.T.);
#487=EDGE_CURVE('',#394,#397,#331,.T.);
#488=EDGE_CURVE('',#398,#396,#332,.T.);
#489=EDGE_CURVE('',#397,#398,#213,.T.);
#490=EDGE_CURVE('',#399,#397,#214,.T.);
#491=EDGE_CURVE('',#400,#398,#215,.T.);
#492=EDGE_CURVE('',#399,#400,#216,.T.);
#493=EDGE_CURVE('',#399,#401,#333,.T.);
#494=EDGE_CURVE('',#402,#400,#334,.T.);
#495=EDGE_CURVE('',#401,#402,#217,.T.);
#496=EDGE_CURVE('',#403,#401,#218,.T.);
#497=EDGE_CURVE('',#404,#402,#219,.T.);
#498=EDGE_CURVE('',#403,#404,#220,.T.);
#499=EDGE_CURVE('',#403,#405,#335,.T.);
#500=EDGE_CURVE('',#406,#404,#336,.T.);
#501=EDGE_CURVE('',#405,#406,#221,.T.);
#502=EDGE_CURVE('',#407,#405,#222,.T.);
#503=EDGE_CURVE('',#408,#406,#223,.T.);
#504=EDGE_CURVE('',#407,#408,#224,.T.);
#505=EDGE_CURVE('',#407,#393,#337,.T.);
#506=EDGE_CURVE('',#395,#408,#338,.T.);
#507=EDGE_CURVE('',#409,#409,#339,.T.);
#508=EDGE_CURVE('',#409,#410,#225,.T.);
#509=EDGE_CURVE('',#410,#410,#340,.T.);
#510=EDGE_CURVE('',#411,#411,#341,.T.);
#511=EDGE_CURVE('',#411,#412,#226,.T.);
#512=EDGE_CURVE('',#412,#412,#342,.T.);
#513=EDGE_CURVE('',#413,#413,#343,.T.);
#514=EDGE_CURVE('',#413,#414,#227,.T.);
#515=EDGE_CURVE('',#414,#414,#344,.T.);
#516=EDGE_CURVE('',#415,#415,#345,.T.);
#517=EDGE_CURVE('',#415,#416,#228,.T.);
#518=EDGE_CURVE('',#416,#416,#346,.T.);
#519=EDGE_CURVE('',#417,#417,#347,.T.);
#520=EDGE_CURVE('',#417,#418,#229,.T.);
#521=EDGE_CURVE('',#418,#418,#348,.T.);
#522=EDGE_CURVE('',#419,#419,#349,.T.);
#523=EDGE_CURVE('',#419,#420,#230,.T.);
#524=EDGE_CURVE('',#420,#420,#350,.T.);
#525=EDGE_CURVE('',#421,#421,#351,.T.);
#526=EDGE_CURVE('',#421,#422,#231,.T.);
#527=EDGE_CURVE('',#422,#422,#352,.T.);
#528=EDGE_CURVE('',#423,#423,#353,.T.);
#529=EDGE_CURVE('',#423,#424,#232,.T.);
#530=EDGE_CURVE('',#424,#424,#354,.T.);
#531=EDGE_CURVE('',#425,#425,#355,.T.);
#532=EDGE_CURVE('',#425,#426,#233,.T.);
#533=EDGE_CURVE('',#426,#426,#356,.T.);
#534=EDGE_CURVE('',#427,#427,#357,.T.);
#535=EDGE_CURVE('',#427,#428,#234,.T.);
#536=EDGE_CURVE('',#428,#428,#358,.T.);
#537=EDGE_CURVE('',#429,#429,#359,.T.);
#538=EDGE_CURVE('',#429,#430,#235,.T.);
#539=EDGE_CURVE('',#430,#430,#360,.T.);
#540=EDGE_CURVE('',#431,#432,#236,.T.);
#541=EDGE_CURVE('',#432,#433,#237,.T.);
#542=EDGE_CURVE('',#434,#433,#238,.T.);
#543=EDGE_CURVE('',#431,#434,#239,.T.);
#544=EDGE_CURVE('',#431,#435,#361,.T.);
#545=EDGE_CURVE('',#436,#434,#362,.T.);
#546=EDGE_CURVE('',#435,#436,#240,.T.);
#547=EDGE_CURVE('',#437,#435,#241,.T.);
#548=EDGE_CURVE('',#438,#436,#242,.T.);
#549=EDGE_CURVE('',#437,#438,#243,.T.);
#550=EDGE_CURVE('',#437,#439,#363,.T.);
#551=EDGE_CURVE('',#440,#438,#364,.T.);
#552=EDGE_CURVE('',#439,#440,#244,.T.);
#553=EDGE_CURVE('',#441,#439,#245,.T.);
#554=EDGE_CURVE('',#442,#440,#246,.T.);
#555=EDGE_CURVE('',#441,#442,#247,.T.);
#556=EDGE_CURVE('',#441,#443,#365,.T.);
#557=EDGE_CURVE('',#444,#442,#366,.T.);
#558=EDGE_CURVE('',#443,#444,#248,.T.);
#559=EDGE_CURVE('',#445,#443,#249,.T.);
#560=EDGE_CURVE('',#446,#444,#250,.T.);
#561=EDGE_CURVE('',#445,#446,#251,.T.);
#562=EDGE_CURVE('',#445,#432,#367,.T.);
#563=EDGE_CURVE('',#433,#446,#368,.T.);
#564=ORIENTED_EDGE('',*,*,#447,.F.);
#565=ORIENTED_EDGE('',*,*,#448,.T.);
#566=ORIENTED_EDGE('',*,*,#449,.F.);
#567=ORIENTED_EDGE('',*,*,#448,.F.);
#568=ORIENTED_EDGE('',*,*,#450,.F.);
#569=ORIENTED_EDGE('',*,*,#451,.T.);
#570=ORIENTED_EDGE('',*,*,#452,.F.);
#571=ORIENTED_EDGE('',*,*,#453,.F.);
#572=ORIENTED_EDGE('',*,*,#454,.F.);
#573=ORIENTED_EDGE('',*,*,#453,.T.);
#574=ORIENTED_EDGE('',*,*,#455,.F.);
#575=ORIENTED_EDGE('',*,*,#456,.F.);
#576=ORIENTED_EDGE('',*,*,#457,.F.);
#577=ORIENTED_EDGE('',*,*,#456,.T.);
#578=ORIENTED_EDGE('',*,*,#458,.F.);
#579=ORIENTED_EDGE('',*,*,#459,.F.);
#580=ORIENTED_EDGE('',*,*,#460,.F.);
#581=ORIENTED_EDGE('',*,*,#459,.T.);
#582=ORIENTED_EDGE('',*,*,#461,.F.);
#583=ORIENTED_EDGE('',*,*,#462,.F.);
#584=ORIENTED_EDGE('',*,*,#463,.F.);
#585=ORIENTED_EDGE('',*,*,#462,.T.);
#586=ORIENTED_EDGE('',*,*,#464,.F.);
#587=ORIENTED_EDGE('',*,*,#465,.F.);
#588=ORIENTED_EDGE('',*,*,#466,.F.);
#589=ORIENTED_EDGE('',*,*,#465,.T.);
#590=ORIENTED_EDGE('',*,*,#467,.F.);
#591=ORIENTED_EDGE('',*,*,#468,.F.);
#592=ORIENTED_EDGE('',*,*,#469,.F.);
#593=ORIENTED_EDGE('',*,*,#468,.T.);
#594=ORIENTED_EDGE('',*,*,#470,.F.);
#595=ORIENTED_EDGE('',*,*,#471,.F.);
#596=ORIENTED_EDGE('',*,*,#472,.F.);
#597=ORIENTED_EDGE('',*,*,#471,.T.);
#598=ORIENTED_EDGE('',*,*,#473,.F.);
#599=ORIENTED_EDGE('',*,*,#451,.F.);
#600=ORIENTED_EDGE('',*,*,#474,.F.);
#601=ORIENTED_EDGE('',*,*,#475,.T.);
#602=ORIENTED_EDGE('',*,*,#476,.F.);
#603=ORIENTED_EDGE('',*,*,#475,.F.);
#604=ORIENTED_EDGE('',*,*,#477,.F.);
#605=ORIENTED_EDGE('',*,*,#478,.T.);
#606=ORIENTED_EDGE('',*,*,#479,.F.);
#607=ORIENTED_EDGE('',*,*,#478,.F.);
#608=ORIENTED_EDGE('',*,*,#480,.F.);
#609=ORIENTED_EDGE('',*,*,#481,.T.);
#610=ORIENTED_EDGE('',*,*,#482,.F.);
#611=ORIENTED_EDGE('',*,*,#481,.F.);
#612=ORIENTED_EDGE('',*,*,#483,.F.);
#613=ORIENTED_EDGE('',*,*,#484,.T.);
#614=ORIENTED_EDGE('',*,*,#485,.F.);
#615=ORIENTED_EDGE('',*,*,#486,.F.);
#616=ORIENTED_EDGE('',*,*,#487,.F.);
#617=ORIENTED_EDGE('',*,*,#486,.T.);
#618=ORIENTED_EDGE('',*,*,#488,.F.);
#619=ORIENTED_EDGE('',*,*,#489,.F.);
#620=ORIENTED_EDGE('',*,*,#490,.T.);
#621=ORIENTED_EDGE('',*,*,#489,.T.);
#622=ORIENTED_EDGE('',*,*,#491,.F.);
#623=ORIENTED_EDGE('',*,*,#492,.F.);
#624=ORIENTED_EDGE('',*,*,#493,.F.);
#625=ORIENTED_EDGE('',*,*,#492,.T.);
#626=ORIENTED_EDGE('',*,*,#494,.F.);
#627=ORIENTED_EDGE('',*,*,#495,.F.);
#628=ORIENTED_EDGE('',*,*,#496,.T.);
#629=ORIENTED_EDGE('',*,*,#495,.T.);
#630=ORIENTED_EDGE('',*,*,#497,.F.);
#631=ORIENTED_EDGE('',*,*,#498,.F.);
#632=ORIENTED_EDGE('',*,*,#499,.F.);
#633=ORIENTED_EDGE('',*,*,#498,.T.);
#634=ORIENTED_EDGE('',*,*,#500,.F.);
#635=ORIENTED_EDGE('',*,*,#501,.F.);
#636=ORIENTED_EDGE('',*,*,#502,.T.);
#637=ORIENTED_EDGE('',*,*,#501,.T.);
#638=ORIENTED_EDGE('',*,*,#503,.F.);
#639=ORIENTED_EDGE('',*,*,#504,.F.);
#640=ORIENTED_EDGE('',*,*,#505,.F.);
#641=ORIENTED_EDGE('',*,*,#504,.T.);
#642=ORIENTED_EDGE('',*,*,#506,.F.);
#643=ORIENTED_EDGE('',*,*,#484,.F.);
#644=ORIENTED_EDGE('',*,*,#505,.T.);
#645=ORIENTED_EDGE('',*,*,#483,.T.);
#646=ORIENTED_EDGE('',*,*,#487,.T.);
#647=ORIENTED_EDGE('',*,*,#490,.F.);
#648=ORIENTED_EDGE('',*,*,#493,.T.);
#649=ORIENTED_EDGE('',*,*,#496,.F.);
#650=ORIENTED_EDGE('',*,*,#499,.T.);
#651=ORIENTED_EDGE('',*,*,#502,.F.);
#652=ORIENTED_EDGE('',*,*,#482,.T.);
#653=ORIENTED_EDGE('',*,*,#479,.T.);
#654=ORIENTED_EDGE('',*,*,#476,.T.);
#655=ORIENTED_EDGE('',*,*,#472,.T.);
#656=ORIENTED_EDGE('',*,*,#450,.T.);
#657=ORIENTED_EDGE('',*,*,#454,.T.);
#658=ORIENTED_EDGE('',*,*,#457,.T.);
#659=ORIENTED_EDGE('',*,*,#460,.T.);
#660=ORIENTED_EDGE('',*,*,#463,.T.);
#661=ORIENTED_EDGE('',*,*,#466,.T.);
#662=ORIENTED_EDGE('',*,*,#469,.T.);
#663=ORIENTED_EDGE('',*,*,#449,.T.);
#664=ORIENTED_EDGE('',*,*,#506,.T.);
#665=ORIENTED_EDGE('',*,*,#503,.T.);
#666=ORIENTED_EDGE('',*,*,#500,.T.);
#667=ORIENTED_EDGE('',*,*,#497,.T.);
#668=ORIENTED_EDGE('',*,*,#494,.T.);
#669=ORIENTED_EDGE('',*,*,#491,.T.);
#670=ORIENTED_EDGE('',*,*,#488,.T.);
#671=ORIENTED_EDGE('',*,*,#485,.T.);
#672=ORIENTED_EDGE('',*,*,#480,.T.);
#673=ORIENTED_EDGE('',*,*,#477,.T.);
#674=ORIENTED_EDGE('',*,*,#474,.T.);
#675=ORIENTED_EDGE('',*,*,#473,.T.);
#676=ORIENTED_EDGE('',*,*,#470,.T.);
#677=ORIENTED_EDGE('',*,*,#467,.T.);
#678=ORIENTED_EDGE('',*,*,#464,.T.);
#679=ORIENTED_EDGE('',*,*,#461,.T.);
#680=ORIENTED_EDGE('',*,*,#458,.T.);
#681=ORIENTED_EDGE('',*,*,#455,.T.);
#682=ORIENTED_EDGE('',*,*,#452,.T.);
#683=ORIENTED_EDGE('',*,*,#447,.T.);
#684=ORIENTED_EDGE('',*,*,#507,.T.);
#685=ORIENTED_EDGE('',*,*,#508,.T.);
#686=ORIENTED_EDGE('',*,*,#509,.T.);
#687=ORIENTED_EDGE('',*,*,#508,.F.);
#688=ORIENTED_EDGE('',*,*,#509,.F.);
#689=ORIENTED_EDGE('',*,*,#510,.F.);
#690=ORIENTED_EDGE('',*,*,#511,.T.);
#691=ORIENTED_EDGE('',*,*,#512,.T.);
#692=ORIENTED_EDGE('',*,*,#511,.F.);
#693=ORIENTED_EDGE('',*,*,#512,.F.);
#694=ORIENTED_EDGE('',*,*,#507,.F.);
#695=ORIENTED_EDGE('',*,*,#513,.T.);
#696=ORIENTED_EDGE('',*,*,#514,.T.);
#697=ORIENTED_EDGE('',*,*,#515,.T.);
#698=ORIENTED_EDGE('',*,*,#514,.F.);
#699=ORIENTED_EDGE('',*,*,#515,.F.);
#700=ORIENTED_EDGE('',*,*,#516,.F.);
#701=ORIENTED_EDGE('',*,*,#517,.T.);
#702=ORIENTED_EDGE('',*,*,#518,.T.);
#703=ORIENTED_EDGE('',*,*,#517,.F.);
#704=ORIENTED_EDGE('',*,*,#518,.F.);
#705=ORIENTED_EDGE('',*,*,#513,.F.);
#706=ORIENTED_EDGE('',*,*,#519,.T.);
#707=ORIENTED_EDGE('',*,*,#520,.T.);
#708=ORIENTED_EDGE('',*,*,#521,.T.);
#709=ORIENTED_EDGE('',*,*,#520,.F.);
#710=ORIENTED_EDGE('',*,*,#521,.F.);
#711=ORIENTED_EDGE('',*,*,#522,.F.);
#712=ORIENTED_EDGE('',*,*,#523,.T.);
#713=ORIENTED_EDGE('',*,*,#524,.T.);
#714=ORIENTED_EDGE('',*,*,#523,.F.);
#715=ORIENTED_EDGE('',*,*,#524,.F.);
#716=ORIENTED_EDGE('',*,*,#519,.F.);
#717=ORIENTED_EDGE('',*,*,#525,.F.);
#718=ORIENTED_EDGE('',*,*,#526,.T.);
#719=ORIENTED_EDGE('',*,*,#527,.F.);
#720=ORIENTED_EDGE('',*,*,#526,.F.);
#721=ORIENTED_EDGE('',*,*,#528,.F.);
#722=ORIENTED_EDGE('',*,*,#529,.T.);
#723=ORIENTED_EDGE('',*,*,#530,.F.);
#724=ORIENTED_EDGE('',*,*,#529,.F.);
#725=ORIENTED_EDGE('',*,*,#531,.F.);
#726=ORIENTED_EDGE('',*,*,#532,.T.);
#727=ORIENTED_EDGE('',*,*,#533,.F.);
#728=ORIENTED_EDGE('',*,*,#532,.F.);
#729=ORIENTED_EDGE('',*,*,#534,.F.);
#730=ORIENTED_EDGE('',*,*,#535,.T.);
#731=ORIENTED_EDGE('',*,*,#536,.F.);
#732=ORIENTED_EDGE('',*,*,#535,.F.);
#733=ORIENTED_EDGE('',*,*,#537,.F.);
#734=ORIENTED_EDGE('',*,*,#538,.T.);
#735=ORIENTED_EDGE('',*,*,#539,.F.);
#736=ORIENTED_EDGE('',*,*,#538,.F.);
#737=ORIENTED_EDGE('',*,*,#540,.T.);
#738=ORIENTED_EDGE('',*,*,#541,.T.);
#739=ORIENTED_EDGE('',*,*,#542,.F.);
#740=ORIENTED_EDGE('',*,*,#543,.F.);
#741=ORIENTED_EDGE('',*,*,#544,.F.);
#742=ORIENTED_EDGE('',*,*,#543,.T.);
#743=ORIENTED_EDGE('',*,*,#545,.F.);
#744=ORIENTED_EDGE('',*,*,#546,.F.);
#745=ORIENTED_EDGE('',*,*,#547,.T.);
#746=ORIENTED_EDGE('',*,*,#546,.T.);
#747=ORIENTED_EDGE('',*,*,#548,.F.);
#748=ORIENTED_EDGE('',*,*,#549,.F.);
#749=ORIENTED_EDGE('',*,*,#550,.F.);
#750=ORIENTED_EDGE('',*,*,#549,.T.);
#751=ORIENTED_EDGE('',*,*,#551,.F.);
#752=ORIENTED_EDGE('',*,*,#552,.F.);
#753=ORIENTED_EDGE('',*,*,#553,.T.);
#754=ORIENTED_EDGE('',*,*,#552,.T.);
#755=ORIENTED_EDGE('',*,*,#554,.F.);
#756=ORIENTED_EDGE('',*,*,#555,.F.);
#757=ORIENTED_EDGE('',*,*,#556,.F.);
#758=ORIENTED_EDGE('',*,*,#555,.T.);
#759=ORIENTED_EDGE('',*,*,#557,.F.);
#760=ORIENTED_EDGE('',*,*,#558,.F.);
#761=ORIENTED_EDGE('',*,*,#559,.T.);
#762=ORIENTED_EDGE('',*,*,#558,.T.);
#763=ORIENTED_EDGE('',*,*,#560,.F.);
#764=ORIENTED_EDGE('',*,*,#561,.F.);
#765=ORIENTED_EDGE('',*,*,#562,.F.);
#766=ORIENTED_EDGE('',*,*,#561,.T.);
#767=ORIENTED_EDGE('',*,*,#563,.F.);
#768=ORIENTED_EDGE('',*,*,#541,.F.);
#769=ORIENTED_EDGE('',*,*,#562,.T.);
#770=ORIENTED_EDGE('',*,*,#540,.F.);
#771=ORIENTED_EDGE('',*,*,#544,.T.);
#772=ORIENTED_EDGE('',*,*,#547,.F.);
#773=ORIENTED_EDGE('',*,*,#550,.T.);
#774=ORIENTED_EDGE('',*,*,#553,.F.);
#775=ORIENTED_EDGE('',*,*,#556,.T.);
#776=ORIENTED_EDGE('',*,*,#559,.F.);
#777=ORIENTED_EDGE('',*,*,#539,.T.);
#778=ORIENTED_EDGE('',*,*,#536,.T.);
#779=ORIENTED_EDGE('',*,*,#533,.T.);
#780=ORIENTED_EDGE('',*,*,#530,.T.);
#781=ORIENTED_EDGE('',*,*,#527,.T.);
#782=ORIENTED_EDGE('',*,*,#563,.T.);
#783=ORIENTED_EDGE('',*,*,#560,.T.);
#784=ORIENTED_EDGE('',*,*,#557,.T.);
#785=ORIENTED_EDGE('',*,*,#554,.T.);
#786=ORIENTED_EDGE('',*,*,#551,.T.);
#787=ORIENTED_EDGE('',*,*,#548,.T.);
#788=ORIENTED_EDGE('',*,*,#545,.T.);
#789=ORIENTED_EDGE('',*,*,#542,.T.);
#790=ORIENTED_EDGE('',*,*,#516,.T.);
#791=ORIENTED_EDGE('',*,*,#525,.T.);
#792=ORIENTED_EDGE('',*,*,#528,.T.);
#793=ORIENTED_EDGE('',*,*,#531,.T.);
#794=ORIENTED_EDGE('',*,*,#534,.T.);
#795=ORIENTED_EDGE('',*,*,#537,.T.);
#796=ORIENTED_EDGE('',*,*,#522,.T.);
#797=ORIENTED_EDGE('',*,*,#510,.T.);
#798=CYLINDRICAL_SURFACE('',#889,1.6);
#799=CYLINDRICAL_SURFACE('',#893,3.00000000000004);
#800=CYLINDRICAL_SURFACE('',#897,3.00000000000004);
#801=CYLINDRICAL_SURFACE('',#901,2.99999999999998);
#802=CYLINDRICAL_SURFACE('',#905,3.);
#803=CYLINDRICAL_SURFACE('',#908,1.6);
#804=CYLINDRICAL_SURFACE('',#911,1.6);
#805=CYLINDRICAL_SURFACE('',#914,1.6);
#806=CYLINDRICAL_SURFACE('',#918,5.00000000000001);
#807=CYLINDRICAL_SURFACE('',#922,5.00000000000002);
#808=CYLINDRICAL_SURFACE('',#926,5.);
#809=CYLINDRICAL_SURFACE('',#930,4.99999999999999);
#810=CYLINDRICAL_SURFACE('',#935,1.25);
#811=CYLINDRICAL_SURFACE('',#939,1.99999999999999);
#812=CYLINDRICAL_SURFACE('',#943,1.25);
#813=CYLINDRICAL_SURFACE('',#947,1.99999999999999);
#814=CYLINDRICAL_SURFACE('',#951,1.25);
#815=CYLINDRICAL_SURFACE('',#955,2.00000000000001);
#816=CYLINDRICAL_SURFACE('',#959,6.09999999999999);
#817=CYLINDRICAL_SURFACE('',#962,2.6);
#818=CYLINDRICAL_SURFACE('',#965,2.6);
#819=CYLINDRICAL_SURFACE('',#968,2.6);
#820=CYLINDRICAL_SURFACE('',#971,6.10000000000001);
#821=CYLINDRICAL_SURFACE('',#975,2.99999999999998);
#822=CYLINDRICAL_SURFACE('',#979,3.00000000000004);
#823=CYLINDRICAL_SURFACE('',#983,3.00000000000004);
#824=CYLINDRICAL_SURFACE('',#987,3.);
#825=ADVANCED_FACE('',(#65),#798,.F.);
#826=ADVANCED_FACE('',(#66),#43,.T.);
#827=ADVANCED_FACE('',(#67),#799,.F.);
#828=ADVANCED_FACE('',(#68),#44,.T.);
#829=ADVANCED_FACE('',(#69),#800,.F.);
#830=ADVANCED_FACE('',(#70),#45,.T.);
#831=ADVANCED_FACE('',(#71),#801,.F.);
#832=ADVANCED_FACE('',(#72),#46,.T.);
#833=ADVANCED_FACE('',(#73),#802,.F.);
#834=ADVANCED_FACE('',(#74),#803,.F.);
#835=ADVANCED_FACE('',(#75),#804,.F.);
#836=ADVANCED_FACE('',(#76),#805,.F.);
#837=ADVANCED_FACE('',(#77),#47,.T.);
#838=ADVANCED_FACE('',(#78),#806,.T.);
#839=ADVANCED_FACE('',(#79),#48,.T.);
#840=ADVANCED_FACE('',(#80),#807,.T.);
#841=ADVANCED_FACE('',(#81),#49,.T.);
#842=ADVANCED_FACE('',(#82),#808,.T.);
#843=ADVANCED_FACE('',(#83),#50,.T.);
#844=ADVANCED_FACE('',(#84),#809,.T.);
#845=ADVANCED_FACE('',(#85,#17,#18,#19,#20,#21),#51,.T.);
#846=ADVANCED_FACE('',(#86,#22,#23,#24,#25,#26),#52,.F.);
#847=ADVANCED_FACE('',(#87),#810,.F.);
#848=ADVANCED_FACE('',(#88),#53,.T.);
#849=ADVANCED_FACE('',(#89),#811,.F.);
#850=ADVANCED_FACE('',(#90,#27),#54,.T.);
#851=ADVANCED_FACE('',(#91),#812,.F.);
#852=ADVANCED_FACE('',(#92),#55,.T.);
#853=ADVANCED_FACE('',(#93),#813,.F.);
#854=ADVANCED_FACE('',(#94,#28),#56,.T.);
#855=ADVANCED_FACE('',(#95),#814,.F.);
#856=ADVANCED_FACE('',(#96),#57,.T.);
#857=ADVANCED_FACE('',(#97),#815,.F.);
#858=ADVANCED_FACE('',(#98,#29),#58,.T.);
#859=ADVANCED_FACE('',(#99),#816,.F.);
#860=ADVANCED_FACE('',(#100),#817,.F.);
#861=ADVANCED_FACE('',(#101),#818,.F.);
#862=ADVANCED_FACE('',(#102),#819,.F.);
#863=ADVANCED_FACE('',(#103),#820,.F.);
#864=ADVANCED_FACE('',(#104),#59,.T.);
#865=ADVANCED_FACE('',(#105),#821,.T.);
#866=ADVANCED_FACE('',(#106),#60,.T.);
#867=ADVANCED_FACE('',(#107),#822,.T.);
#868=ADVANCED_FACE('',(#108),#61,.T.);
#869=ADVANCED_FACE('',(#109),#823,.T.);
#870=ADVANCED_FACE('',(#110),#62,.T.);
#871=ADVANCED_FACE('',(#111),#824,.T.);
#872=ADVANCED_FACE('',(#112,#30,#31,#32,#33,#34),#63,.T.);
#873=ADVANCED_FACE('',(#113,#35,#36,#37,#38,#39,#40,#41,#42),#64,.F.);
#874=CLOSED_SHELL('',(#825,#826,#827,#828,#829,#830,#831,#832,#833,#834,
#835,#836,#837,#838,#839,#840,#841,#842,#843,#844,#845,#846));
#875=CLOSED_SHELL('',(#847,#848,#849,#850,#851,#852,#853,#854,#855,#856,
#857,#858,#859,#860,#861,#862,#863,#864,#865,#866,#867,#868,#869,#870,#871,
#872,#873));
#876=DERIVED_UNIT_ELEMENT(#878,1.);
#877=DERIVED_UNIT_ELEMENT(#1513,-3.);
#878=(
MASS_UNIT()
NAMED_UNIT(*)
SI_UNIT(.KILO.,.GRAM.)
);
#879=DERIVED_UNIT((#876,#877));
#880=MEASURE_REPRESENTATION_ITEM('density measure',
POSITIVE_RATIO_MEASURE(7850.),#879);
#881=PROPERTY_DEFINITION_REPRESENTATION(#886,#883);
#882=PROPERTY_DEFINITION_REPRESENTATION(#887,#884);
#883=REPRESENTATION('material name',(#885),#1510);
#884=REPRESENTATION('density',(#880),#1510);
#885=DESCRIPTIVE_REPRESENTATION_ITEM('Steel','Steel');
#886=PROPERTY_DEFINITION('material property','material name',#1520);
#887=PROPERTY_DEFINITION('material property','density of part',#1520);
#888=AXIS2_PLACEMENT_3D('',#1263,#992,#993);
#889=AXIS2_PLACEMENT_3D('',#1264,#994,#995);
#890=AXIS2_PLACEMENT_3D('',#1266,#996,#997);
#891=AXIS2_PLACEMENT_3D('',#1269,#999,#1000);
#892=AXIS2_PLACEMENT_3D('',#1270,#1001,#1002);
#893=AXIS2_PLACEMENT_3D('',#1279,#1007,#1008);
#894=AXIS2_PLACEMENT_3D('',#1281,#1009,#1010);
#895=AXIS2_PLACEMENT_3D('',#1283,#1011,#1012);
#896=AXIS2_PLACEMENT_3D('',#1285,#1014,#1015);
#897=AXIS2_PLACEMENT_3D('',#1291,#1019,#1020);
#898=AXIS2_PLACEMENT_3D('',#1293,#1021,#1022);
#899=AXIS2_PLACEMENT_3D('',#1295,#1023,#1024);
#900=AXIS2_PLACEMENT_3D('',#1297,#1026,#1027);
#901=AXIS2_PLACEMENT_3D('',#1303,#1031,#1032);
#902=AXIS2_PLACEMENT_3D('',#1305,#1033,#1034);
#903=AXIS2_PLACEMENT_3D('',#1307,#1035,#1036);
#904=AXIS2_PLACEMENT_3D('',#1309,#1038,#1039);
#905=AXIS2_PLACEMENT_3D('',#1315,#1043,#1044);
#906=AXIS2_PLACEMENT_3D('',#1316,#1045,#1046);
#907=AXIS2_PLACEMENT_3D('',#1317,#1047,#1048);
#908=AXIS2_PLACEMENT_3D('',#1318,#1049,#1050);
#909=AXIS2_PLACEMENT_3D('',#1320,#1051,#1052);
#910=AXIS2_PLACEMENT_3D('',#1323,#1054,#1055);
#911=AXIS2_PLACEMENT_3D('',#1324,#1056,#1057);
#912=AXIS2_PLACEMENT_3D('',#1326,#1058,#1059);
#913=AXIS2_PLACEMENT_3D('',#1329,#1061,#1062);
#914=AXIS2_PLACEMENT_3D('',#1330,#1063,#1064);
#915=AXIS2_PLACEMENT_3D('',#1332,#1065,#1066);
#916=AXIS2_PLACEMENT_3D('',#1335,#1068,#1069);
#917=AXIS2_PLACEMENT_3D('',#1336,#1070,#1071);
#918=AXIS2_PLACEMENT_3D('',#1345,#1076,#1077);
#919=AXIS2_PLACEMENT_3D('',#1347,#1078,#1079);
#920=AXIS2_PLACEMENT_3D('',#1349,#1080,#1081);
#921=AXIS2_PLACEMENT_3D('',#1351,#1083,#1084);
#922=AXIS2_PLACEMENT_3D('',#1357,#1088,#1089);
#923=AXIS2_PLACEMENT_3D('',#1359,#1090,#1091);
#924=AXIS2_PLACEMENT_3D('',#1361,#1092,#1093);
#925=AXIS2_PLACEMENT_3D('',#1363,#1095,#1096);
#926=AXIS2_PLACEMENT_3D('',#1369,#1100,#1101);
#927=AXIS2_PLACEMENT_3D('',#1371,#1102,#1103);
#928=AXIS2_PLACEMENT_3D('',#1373,#1104,#1105);
#929=AXIS2_PLACEMENT_3D('',#1375,#1107,#1108);
#930=AXIS2_PLACEMENT_3D('',#1381,#1112,#1113);
#931=AXIS2_PLACEMENT_3D('',#1382,#1114,#1115);
#932=AXIS2_PLACEMENT_3D('',#1383,#1116,#1117);
#933=AXIS2_PLACEMENT_3D('',#1384,#1118,#1119);
#934=AXIS2_PLACEMENT_3D('',#1385,#1120,#1121);
#935=AXIS2_PLACEMENT_3D('',#1386,#1122,#1123);
#936=AXIS2_PLACEMENT_3D('',#1388,#1124,#1125);
#937=AXIS2_PLACEMENT_3D('',#1391,#1127,#1128);
#938=AXIS2_PLACEMENT_3D('',#1392,#1129,#1130);
#939=AXIS2_PLACEMENT_3D('',#1393,#1131,#1132);
#940=AXIS2_PLACEMENT_3D('',#1395,#1133,#1134);
#941=AXIS2_PLACEMENT_3D('',#1398,#1136,#1137);
#942=AXIS2_PLACEMENT_3D('',#1399,#1138,#1139);
#943=AXIS2_PLACEMENT_3D('',#1400,#1140,#1141);
#944=AXIS2_PLACEMENT_3D('',#1402,#1142,#1143);
#945=AXIS2_PLACEMENT_3D('',#1405,#1145,#1146);
#946=AXIS2_PLACEMENT_3D('',#1406,#1147,#1148);
#947=AXIS2_PLACEMENT_3D('',#1407,#1149,#1150);
#948=AXIS2_PLACEMENT_3D('',#1409,#1151,#1152);
#949=AXIS2_PLACEMENT_3D('',#1412,#1154,#1155);
#950=AXIS2_PLACEMENT_3D('',#1413,#1156,#1157);
#951=AXIS2_PLACEMENT_3D('',#1414,#1158,#1159);
#952=AXIS2_PLACEMENT_3D('',#1416,#1160,#1161);
#953=AXIS2_PLACEMENT_3D('',#1419,#1163,#1164);
#954=AXIS2_PLACEMENT_3D('',#1420,#1165,#1166);
#955=AXIS2_PLACEMENT_3D('',#1421,#1167,#1168);
#956=AXIS2_PLACEMENT_3D('',#1423,#1169,#1170);
#957=AXIS2_PLACEMENT_3D('',#1426,#1172,#1173);
#958=AXIS2_PLACEMENT_3D('',#1427,#1174,#1175);
#959=AXIS2_PLACEMENT_3D('',#1428,#1176,#1177);
#960=AXIS2_PLACEMENT_3D('',#1430,#1178,#1179);
#961=AXIS2_PLACEMENT_3D('',#1433,#1181,#1182);
#962=AXIS2_PLACEMENT_3D('',#1434,#1183,#1184);
#963=AXIS2_PLACEMENT_3D('',#1436,#1185,#1186);
#964=AXIS2_PLACEMENT_3D('',#1439,#1188,#1189);
#965=AXIS2_PLACEMENT_3D('',#1440,#1190,#1191);
#966=AXIS2_PLACEMENT_3D('',#1442,#1192,#1193);
#967=AXIS2_PLACEMENT_3D('',#1445,#1195,#1196);
#968=AXIS2_PLACEMENT_3D('',#1446,#1197,#1198);
#969=AXIS2_PLACEMENT_3D('',#1448,#1199,#1200);
#970=AXIS2_PLACEMENT_3D('',#1451,#1202,#1203);
#971=AXIS2_PLACEMENT_3D('',#1452,#1204,#1205);
#972=AXIS2_PLACEMENT_3D('',#1454,#1206,#1207);
#973=AXIS2_PLACEMENT_3D('',#1457,#1209,#1210);
#974=AXIS2_PLACEMENT_3D('',#1458,#1211,#1212);
#975=AXIS2_PLACEMENT_3D('',#1467,#1217,#1218);
#976=AXIS2_PLACEMENT_3D('',#1469,#1219,#1220);
#977=AXIS2_PLACEMENT_3D('',#1471,#1221,#1222);
#978=AXIS2_PLACEMENT_3D('',#1473,#1224,#1225);
#979=AXIS2_PLACEMENT_3D('',#1479,#1229,#1230);
#980=AXIS2_PLACEMENT_3D('',#1481,#1231,#1232);
#981=AXIS2_PLACEMENT_3D('',#1483,#1233,#1234);
#982=AXIS2_PLACEMENT_3D('',#1485,#1236,#1237);
#983=AXIS2_PLACEMENT_3D('',#1491,#1241,#1242);
#984=AXIS2_PLACEMENT_3D('',#1493,#1243,#1244);
#985=AXIS2_PLACEMENT_3D('',#1495,#1245,#1246);
#986=AXIS2_PLACEMENT_3D('',#1497,#1248,#1249);
#987=AXIS2_PLACEMENT_3D('',#1503,#1253,#1254);
#988=AXIS2_PLACEMENT_3D('',#1504,#1255,#1256);
#989=AXIS2_PLACEMENT_3D('',#1505,#1257,#1258);
#990=AXIS2_PLACEMENT_3D('',#1506,#1259,#1260);
#991=AXIS2_PLACEMENT_3D('',#1507,#1261,#1262);
#992=DIRECTION('axis',(0.,0.,1.));
#993=DIRECTION('refdir',(1.,0.,0.));
#994=DIRECTION('center_axis',(0.,0.,-1.));
#995=DIRECTION('ref_axis',(1.,0.,0.));
#996=DIRECTION('center_axis',(0.,0.,1.));
#997=DIRECTION('ref_axis',(1.,0.,0.));
#998=DIRECTION('',(0.,0.,1.));
#999=DIRECTION('center_axis',(0.,0.,-1.));
#1000=DIRECTION('ref_axis',(1.,0.,0.));
#1001=DIRECTION('center_axis',(-1.75513198745889E-16,-1.,0.));
#1002=DIRECTION('ref_axis',(-1.,1.75513198745889E-16,0.));
#1003=DIRECTION('',(1.,-1.75513198745889E-16,0.));
#1004=DIRECTION('',(0.,0.,-1.));
#1005=DIRECTION('',(-1.,1.75513198745889E-16,0.));
#1006=DIRECTION('',(0.,0.,-1.));
#1007=DIRECTION('center_axis',(0.,0.,-1.));
#1008=DIRECTION('ref_axis',(1.,0.,0.));
#1009=DIRECTION('center_axis',(0.,0.,-1.));
#1010=DIRECTION('ref_axis',(1.,0.,0.));
#1011=DIRECTION('center_axis',(0.,0.,1.));
#1012=DIRECTION('ref_axis',(1.,0.,0.));
#1013=DIRECTION('',(0.,0.,-1.));
#1014=DIRECTION('center_axis',(-1.,0.,0.));
#1015=DIRECTION('ref_axis',(0.,1.,0.));
#1016=DIRECTION('',(0.,-1.,0.));
#1017=DIRECTION('',(0.,1.,0.));
#1018=DIRECTION('',(0.,0.,-1.));
#1019=DIRECTION('center_axis',(0.,0.,-1.));
#1020=DIRECTION('ref_axis',(0.,-1.,0.));
#1021=DIRECTION('center_axis',(0.,0.,-1.));
#1022=DIRECTION('ref_axis',(0.,-1.,0.));
#1023=DIRECTION('center_axis',(0.,0.,1.));
#1024=DIRECTION('ref_axis',(0.,-1.,0.));
#1025=DIRECTION('',(0.,0.,-1.));
#1026=DIRECTION('center_axis',(1.30614473485313E-16,1.,0.));
#1027=DIRECTION('ref_axis',(1.,-1.30614473485313E-16,0.));
#1028=DIRECTION('',(-1.,1.30614473485313E-16,0.));
#1029=DIRECTION('',(1.,-1.30614473485313E-16,0.));
#1030=DIRECTION('',(0.,0.,-1.));
#1031=DIRECTION('center_axis',(0.,0.,-1.));
#1032=DIRECTION('ref_axis',(-1.,0.,0.));
#1033=DIRECTION('center_axis',(0.,0.,-1.));
#1034=DIRECTION('ref_axis',(-1.,0.,0.));
#1035=DIRECTION('center_axis',(0.,0.,1.));
#1036=DIRECTION('ref_axis',(-1.,0.,0.));
#1037=DIRECTION('',(0.,0.,-1.));
#1038=DIRECTION('center_axis',(1.,0.,0.));
#1039=DIRECTION('ref_axis',(0.,-1.,0.));
#1040=DIRECTION('',(0.,1.,0.));
#1041=DIRECTION('',(0.,-1.,0.));
#1042=DIRECTION('',(0.,0.,-1.));
#1043=DIRECTION('center_axis',(0.,0.,-1.));
#1044=DIRECTION('ref_axis',(0.,1.,0.));
#1045=DIRECTION('center_axis',(0.,0.,-1.));
#1046=DIRECTION('ref_axis',(0.,1.,0.));
#1047=DIRECTION('center_axis',(0.,0.,1.));
#1048=DIRECTION('ref_axis',(0.,1.,0.));
#1049=DIRECTION('center_axis',(0.,0.,-1.));
#1050=DIRECTION('ref_axis',(1.,0.,0.));
#1051=DIRECTION('center_axis',(0.,0.,1.));
#1052=DIRECTION('ref_axis',(1.,0.,0.));
#1053=DIRECTION('',(0.,0.,1.));
#1054=DIRECTION('center_axis',(0.,0.,-1.));
#1055=DIRECTION('ref_axis',(1.,0.,0.));
#1056=DIRECTION('center_axis',(0.,0.,-1.));
#1057=DIRECTION('ref_axis',(1.,0.,0.));
#1058=DIRECTION('center_axis',(0.,0.,1.));
#1059=DIRECTION('ref_axis',(1.,0.,0.));
#1060=DIRECTION('',(0.,0.,1.));
#1061=DIRECTION('center_axis',(0.,0.,-1.));
#1062=DIRECTION('ref_axis',(1.,0.,0.));
#1063=DIRECTION('center_axis',(0.,0.,-1.));
#1064=DIRECTION('ref_axis',(1.,0.,0.));
#1065=DIRECTION('center_axis',(0.,0.,1.));
#1066=DIRECTION('ref_axis',(1.,0.,0.));
#1067=DIRECTION('',(0.,0.,1.));
#1068=DIRECTION('center_axis',(0.,0.,-1.));
#1069=DIRECTION('ref_axis',(1.,0.,0.));
#1070=DIRECTION('center_axis',(-1.,1.11022302462516E-16,0.));
#1071=DIRECTION('ref_axis',(1.11022302462516E-16,1.,0.));
#1072=DIRECTION('',(-1.11022302462516E-16,-1.,0.));
#1073=DIRECTION('',(0.,0.,-1.));
#1074=DIRECTION('',(1.11022302462516E-16,1.,0.));
#1075=DIRECTION('',(0.,0.,-1.));
#1076=DIRECTION('center_axis',(0.,0.,-1.));
#1077=DIRECTION('ref_axis',(-1.,0.,0.));
#1078=DIRECTION('center_axis',(0.,0.,1.));
#1079=DIRECTION('ref_axis',(-1.,0.,0.));
#1080=DIRECTION('center_axis',(0.,0.,-1.));
#1081=DIRECTION('ref_axis',(-1.,0.,0.));
#1082=DIRECTION('',(0.,0.,-1.));
#1083=DIRECTION('center_axis',(0.,-1.,0.));
#1084=DIRECTION('ref_axis',(-1.,0.,0.));
#1085=DIRECTION('',(-1.,0.,0.));
#1086=DIRECTION('',(-1.,0.,0.));
#1087=DIRECTION('',(0.,0.,-1.));
#1088=DIRECTION('center_axis',(0.,0.,-1.));
#1089=DIRECTION('ref_axis',(0.,-1.,0.));
#1090=DIRECTION('center_axis',(0.,0.,1.));
#1091=DIRECTION('ref_axis',(0.,-1.,0.));
#1092=DIRECTION('center_axis',(0.,0.,-1.));
#1093=DIRECTION('ref_axis',(0.,-1.,0.));
#1094=DIRECTION('',(0.,0.,-1.));
#1095=DIRECTION('center_axis',(1.,0.,0.));
#1096=DIRECTION('ref_axis',(0.,-1.,0.));
#1097=DIRECTION('',(0.,-1.,0.));
#1098=DIRECTION('',(0.,-1.,0.));
#1099=DIRECTION('',(0.,0.,-1.));
#1100=DIRECTION('center_axis',(0.,0.,-1.));
#1101=DIRECTION('ref_axis',(1.,0.,0.));
#1102=DIRECTION('center_axis',(0.,0.,1.));
#1103=DIRECTION('ref_axis',(1.,0.,0.));
#1104=DIRECTION('center_axis',(0.,0.,-1.));
#1105=DIRECTION('ref_axis',(1.,0.,0.));
#1106=DIRECTION('',(0.,0.,-1.));
#1107=DIRECTION('center_axis',(-6.57368896159632E-17,1.,0.));
#1108=DIRECTION('ref_axis',(1.,6.57368896159632E-17,0.));
#1109=DIRECTION('',(1.,6.57368896159632E-17,0.));
#1110=DIRECTION('',(1.,6.57368896159632E-17,0.));
#1111=DIRECTION('',(0.,0.,-1.));
#1112=DIRECTION('center_axis',(0.,0.,-1.));
#1113=DIRECTION('ref_axis',(0.,1.,0.));
#1114=DIRECTION('center_axis',(0.,0.,1.));
#1115=DIRECTION('ref_axis',(0.,1.,0.));
#1116=DIRECTION('center_axis',(0.,0.,-1.));
#1117=DIRECTION('ref_axis',(0.,1.,0.));
#1118=DIRECTION('center_axis',(0.,0.,1.));
#1119=DIRECTION('ref_axis',(1.,0.,0.));
#1120=DIRECTION('center_axis',(0.,0.,1.));
#1121=DIRECTION('ref_axis',(1.,0.,0.));
#1122=DIRECTION('center_axis',(0.,0.,1.));
#1123=DIRECTION('ref_axis',(-1.,0.,0.));
#1124=DIRECTION('center_axis',(0.,0.,-1.));
#1125=DIRECTION('ref_axis',(-1.,0.,0.));
#1126=DIRECTION('',(0.,0.,1.));
#1127=DIRECTION('center_axis',(0.,0.,1.));
#1128=DIRECTION('ref_axis',(-1.,0.,0.));
#1129=DIRECTION('center_axis',(0.,0.,-1.));
#1130=DIRECTION('ref_axis',(-1.,0.,0.));
#1131=DIRECTION('center_axis',(0.,0.,1.));
#1132=DIRECTION('ref_axis',(-1.,0.,0.));
#1133=DIRECTION('center_axis',(0.,0.,1.));
#1134=DIRECTION('ref_axis',(-1.,0.,0.));
#1135=DIRECTION('',(0.,0.,1.));
#1136=DIRECTION('center_axis',(0.,0.,1.));
#1137=DIRECTION('ref_axis',(-1.,0.,0.));
#1138=DIRECTION('center_axis',(0.,0.,-1.));
#1139=DIRECTION('ref_axis',(-1.,0.,0.));
#1140=DIRECTION('center_axis',(0.,0.,1.));
#1141=DIRECTION('ref_axis',(-1.,0.,0.));
#1142=DIRECTION('center_axis',(0.,0.,-1.));
#1143=DIRECTION('ref_axis',(-1.,0.,0.));
#1144=DIRECTION('',(0.,0.,1.));
#1145=DIRECTION('center_axis',(0.,0.,1.));
#1146=DIRECTION('ref_axis',(-1.,0.,0.));
#1147=DIRECTION('center_axis',(0.,0.,-1.));
#1148=DIRECTION('ref_axis',(-1.,0.,0.));
#1149=DIRECTION('center_axis',(0.,0.,1.));
#1150=DIRECTION('ref_axis',(-1.,0.,0.));
#1151=DIRECTION('center_axis',(0.,0.,1.));
#1152=DIRECTION('ref_axis',(-1.,0.,0.));
#1153=DIRECTION('',(0.,0.,1.));
#1154=DIRECTION('center_axis',(0.,0.,1.));
#1155=DIRECTION('ref_axis',(-1.,0.,0.));
#1156=DIRECTION('center_axis',(0.,0.,-1.));
#1157=DIRECTION('ref_axis',(-1.,0.,0.));
#1158=DIRECTION('center_axis',(0.,0.,1.));
#1159=DIRECTION('ref_axis',(-1.,0.,0.));
#1160=DIRECTION('center_axis',(0.,0.,-1.));
#1161=DIRECTION('ref_axis',(-1.,0.,0.));
#1162=DIRECTION('',(0.,0.,1.));
#1163=DIRECTION('center_axis',(0.,0.,1.));
#1164=DIRECTION('ref_axis',(-1.,0.,0.));
#1165=DIRECTION('center_axis',(0.,0.,-1.));
#1166=DIRECTION('ref_axis',(-1.,0.,0.));
#1167=DIRECTION('center_axis',(0.,0.,1.));
#1168=DIRECTION('ref_axis',(-1.,0.,0.));
#1169=DIRECTION('center_axis',(0.,0.,1.));
#1170=DIRECTION('ref_axis',(-1.,0.,0.));
#1171=DIRECTION('',(0.,0.,1.));
#1172=DIRECTION('center_axis',(0.,0.,1.));
#1173=DIRECTION('ref_axis',(-1.,0.,0.));
#1174=DIRECTION('center_axis',(0.,0.,-1.));
#1175=DIRECTION('ref_axis',(-1.,0.,0.));
#1176=DIRECTION('center_axis',(0.,0.,-1.));
#1177=DIRECTION('ref_axis',(1.,0.,0.));
#1178=DIRECTION('center_axis',(0.,0.,1.));
#1179=DIRECTION('ref_axis',(1.,0.,0.));
#1180=DIRECTION('',(0.,0.,1.));
#1181=DIRECTION('center_axis',(0.,0.,-1.));
#1182=DIRECTION('ref_axis',(1.,0.,0.));
#1183=DIRECTION('center_axis',(0.,0.,-1.));
#1184=DIRECTION('ref_axis',(1.,0.,0.));
#1185=DIRECTION('center_axis',(0.,0.,1.));
#1186=DIRECTION('ref_axis',(1.,0.,0.));
#1187=DIRECTION('',(0.,0.,1.));
#1188=DIRECTION('center_axis',(0.,0.,-1.));
#1189=DIRECTION('ref_axis',(1.,0.,0.));
#1190=DIRECTION('center_axis',(0.,0.,-1.));
#1191=DIRECTION('ref_axis',(1.,0.,0.));
#1192=DIRECTION('center_axis',(0.,0.,1.));
#1193=DIRECTION('ref_axis',(1.,0.,0.));
#1194=DIRECTION('',(0.,0.,1.));
#1195=DIRECTION('center_axis',(0.,0.,-1.));
#1196=DIRECTION('ref_axis',(1.,0.,0.));
#1197=DIRECTION('center_axis',(0.,0.,-1.));
#1198=DIRECTION('ref_axis',(1.,0.,0.));
#1199=DIRECTION('center_axis',(0.,0.,1.));
#1200=DIRECTION('ref_axis',(1.,0.,0.));
#1201=DIRECTION('',(0.,0.,1.));
#1202=DIRECTION('center_axis',(0.,0.,-1.));
#1203=DIRECTION('ref_axis',(1.,0.,0.));
#1204=DIRECTION('center_axis',(0.,0.,-1.));
#1205=DIRECTION('ref_axis',(1.,0.,0.));
#1206=DIRECTION('center_axis',(0.,0.,1.));
#1207=DIRECTION('ref_axis',(1.,0.,0.));
#1208=DIRECTION('',(0.,0.,1.));
#1209=DIRECTION('center_axis',(0.,0.,-1.));
#1210=DIRECTION('ref_axis',(1.,0.,0.));
#1211=DIRECTION('center_axis',(-1.,0.,0.));
#1212=DIRECTION('ref_axis',(0.,1.,0.));
#1213=DIRECTION('',(0.,1.,0.));
#1214=DIRECTION('',(0.,0.,-1.));
#1215=DIRECTION('',(0.,1.,0.));
#1216=DIRECTION('',(0.,0.,-1.));
#1217=DIRECTION('center_axis',(0.,0.,-1.));
#1218=DIRECTION('ref_axis',(-1.,0.,0.));
#1219=DIRECTION('center_axis',(0.,0.,1.));
#1220=DIRECTION('ref_axis',(-1.,0.,0.));
#1221=DIRECTION('center_axis',(0.,0.,-1.));
#1222=DIRECTION('ref_axis',(-1.,0.,0.));
#1223=DIRECTION('',(0.,0.,-1.));
#1224=DIRECTION('center_axis',(-1.30614473485313E-16,-1.,0.));
#1225=DIRECTION('ref_axis',(-1.,1.30614473485313E-16,0.));
#1226=DIRECTION('',(-1.,1.30614473485313E-16,0.));
#1227=DIRECTION('',(-1.,1.30614473485313E-16,0.));
#1228=DIRECTION('',(0.,0.,-1.));
#1229=DIRECTION('center_axis',(0.,0.,-1.));
#1230=DIRECTION('ref_axis',(0.,-1.,0.));
#1231=DIRECTION('center_axis',(0.,0.,1.));
#1232=DIRECTION('ref_axis',(0.,-1.,0.));
#1233=DIRECTION('center_axis',(0.,0.,-1.));
#1234=DIRECTION('ref_axis',(0.,-1.,0.));
#1235=DIRECTION('',(0.,0.,-1.));
#1236=DIRECTION('center_axis',(1.,0.,0.));
#1237=DIRECTION('ref_axis',(0.,-1.,0.));
#1238=DIRECTION('',(0.,-1.,0.));
#1239=DIRECTION('',(0.,-1.,0.));
#1240=DIRECTION('',(0.,0.,-1.));
#1241=DIRECTION('center_axis',(0.,0.,-1.));
#1242=DIRECTION('ref_axis',(1.,0.,0.));
#1243=DIRECTION('center_axis',(0.,0.,1.));
#1244=DIRECTION('ref_axis',(1.,0.,0.));
#1245=DIRECTION('center_axis',(0.,0.,-1.));
#1246=DIRECTION('ref_axis',(1.,0.,0.));
#1247=DIRECTION('',(0.,0.,-1.));
#1248=DIRECTION('center_axis',(1.75513198745889E-16,1.,0.));
#1249=DIRECTION('ref_axis',(1.,-1.75513198745889E-16,0.));
#1250=DIRECTION('',(1.,-1.75513198745889E-16,0.));
#1251=DIRECTION('',(1.,-1.75513198745889E-16,0.));
#1252=DIRECTION('',(0.,0.,-1.));
#1253=DIRECTION('center_axis',(0.,0.,-1.));
#1254=DIRECTION('ref_axis',(0.,1.,0.));
#1255=DIRECTION('center_axis',(0.,0.,1.));
#1256=DIRECTION('ref_axis',(0.,1.,0.));
#1257=DIRECTION('center_axis',(0.,0.,-1.));
#1258=DIRECTION('ref_axis',(0.,1.,0.));
#1259=DIRECTION('center_axis',(0.,0.,1.));
#1260=DIRECTION('ref_axis',(1.,0.,0.));
#1261=DIRECTION('center_axis',(0.,0.,1.));
#1262=DIRECTION('ref_axis',(1.,0.,0.));
#1263=CARTESIAN_POINT('',(0.,0.,0.));
#1264=CARTESIAN_POINT('Origin',(34.3457567890863,-0.84003571625404,0.));
#1265=CARTESIAN_POINT('',(32.7457567890863,-0.840035716254039,-25.));
#1266=CARTESIAN_POINT('Origin',(34.3457567890863,-0.84003571625404,-25.));
#1267=CARTESIAN_POINT('',(32.7457567890863,-0.84003571625404,0.));
#1268=CARTESIAN_POINT('',(32.7457567890863,-0.84003571625404,0.));
#1269=CARTESIAN_POINT('Origin',(34.3457567890863,-0.84003571625404,0.));
#1270=CARTESIAN_POINT('Origin',(177.345756789086,-2.84003571625406,0.));
#1271=CARTESIAN_POINT('',(41.3457567890863,-2.84003571625404,0.));
#1272=CARTESIAN_POINT('',(177.345756789086,-2.84003571625406,0.));
#1273=CARTESIAN_POINT('',(41.3457567890863,-2.84003571625404,0.));
#1274=CARTESIAN_POINT('',(41.3457567890863,-2.84003571625404,-25.));
#1275=CARTESIAN_POINT('',(41.3457567890863,-2.84003571625404,0.));
#1276=CARTESIAN_POINT('',(177.345756789086,-2.84003571625407,-25.));
#1277=CARTESIAN_POINT('',(41.3457567890863,-2.84003571625404,-25.));
#1278=CARTESIAN_POINT('',(177.345756789086,-2.84003571625406,0.));
#1279=CARTESIAN_POINT('Origin',(177.345756789086,-5.84003571625411,0.));
#1280=CARTESIAN_POINT('',(180.345756789086,-5.84003571625411,0.));
#1281=CARTESIAN_POINT('Origin',(177.345756789086,-5.84003571625411,0.));
#1282=CARTESIAN_POINT('',(180.345756789086,-5.84003571625411,-25.));
#1283=CARTESIAN_POINT('Origin',(177.345756789086,-5.84003571625411,-25.));
#1284=CARTESIAN_POINT('',(180.345756789086,-5.84003571625411,0.));
#1285=CARTESIAN_POINT('Origin',(180.345756789086,-70.840035716254,0.));
#1286=CARTESIAN_POINT('',(180.345756789086,-70.840035716254,0.));
#1287=CARTESIAN_POINT('',(180.345756789086,-5.84003571625411,0.));
#1288=CARTESIAN_POINT('',(180.345756789086,-70.840035716254,-25.));
#1289=CARTESIAN_POINT('',(180.345756789086,-5.84003571625411,-25.));
#1290=CARTESIAN_POINT('',(180.345756789086,-70.840035716254,0.));
#1291=CARTESIAN_POINT('Origin',(177.345756789086,-70.840035716254,0.));
#1292=CARTESIAN_POINT('',(177.345756789086,-73.840035716254,0.));
#1293=CARTESIAN_POINT('Origin',(177.345756789086,-70.840035716254,0.));
#1294=CARTESIAN_POINT('',(177.345756789086,-73.840035716254,-25.));
#1295=CARTESIAN_POINT('Origin',(177.345756789086,-70.840035716254,-25.));
#1296=CARTESIAN_POINT('',(177.345756789086,-73.840035716254,0.));
#1297=CARTESIAN_POINT('Origin',(41.3457567890863,-73.840035716254,0.));
#1298=CARTESIAN_POINT('',(41.3457567890862,-73.840035716254,0.));
#1299=CARTESIAN_POINT('',(177.345756789086,-73.840035716254,0.));
#1300=CARTESIAN_POINT('',(41.3457567890863,-73.840035716254,-25.));
#1301=CARTESIAN_POINT('',(177.345756789086,-73.840035716254,-25.));
#1302=CARTESIAN_POINT('',(41.3457567890862,-73.840035716254,0.));
#1303=CARTESIAN_POINT('Origin',(41.3457567890862,-70.840035716254,0.));
#1304=CARTESIAN_POINT('',(38.3457567890863,-70.840035716254,0.));
#1305=CARTESIAN_POINT('Origin',(41.3457567890862,-70.840035716254,0.));
#1306=CARTESIAN_POINT('',(38.3457567890863,-70.840035716254,-25.));
#1307=CARTESIAN_POINT('Origin',(41.3457567890862,-70.840035716254,-25.));
#1308=CARTESIAN_POINT('',(38.3457567890863,-70.840035716254,0.));
#1309=CARTESIAN_POINT('Origin',(38.3457567890863,-5.84003571625404,0.));
#1310=CARTESIAN_POINT('',(38.3457567890863,-5.84003571625404,0.));
#1311=CARTESIAN_POINT('',(38.3457567890863,-70.840035716254,0.));
#1312=CARTESIAN_POINT('',(38.3457567890863,-5.84003571625404,-25.));
#1313=CARTESIAN_POINT('',(38.3457567890863,-70.840035716254,-25.));
#1314=CARTESIAN_POINT('',(38.3457567890863,-5.84003571625404,0.));
#1315=CARTESIAN_POINT('Origin',(41.3457567890863,-5.84003571625404,0.));
#1316=CARTESIAN_POINT('Origin',(41.3457567890863,-5.84003571625404,0.));
#1317=CARTESIAN_POINT('Origin',(41.3457567890863,-5.84003571625404,-25.));
#1318=CARTESIAN_POINT('Origin',(184.345756789086,-0.840035716254041,0.));
#1319=CARTESIAN_POINT('',(182.745756789086,-0.840035716254039,-25.));
#1320=CARTESIAN_POINT('Origin',(184.345756789086,-0.840035716254041,-25.));
#1321=CARTESIAN_POINT('',(182.745756789086,-0.840035716254041,0.));
#1322=CARTESIAN_POINT('',(182.745756789086,-0.840035716254041,0.));
#1323=CARTESIAN_POINT('Origin',(184.345756789086,-0.840035716254041,0.));
#1324=CARTESIAN_POINT('Origin',(34.3457567890863,-78.8400357162541,0.));
#1325=CARTESIAN_POINT('',(32.7457567890863,-78.8400357162541,-25.));
#1326=CARTESIAN_POINT('Origin',(34.3457567890863,-78.8400357162541,-25.));
#1327=CARTESIAN_POINT('',(32.7457567890863,-78.8400357162541,0.));
#1328=CARTESIAN_POINT('',(32.7457567890863,-78.8400357162541,0.));
#1329=CARTESIAN_POINT('Origin',(34.3457567890863,-78.8400357162541,0.));
#1330=CARTESIAN_POINT('Origin',(184.345756789086,-78.8400357162541,0.));
#1331=CARTESIAN_POINT('',(182.745756789086,-78.8400357162541,-25.));
#1332=CARTESIAN_POINT('Origin',(184.345756789086,-78.8400357162541,-25.));
#1333=CARTESIAN_POINT('',(182.745756789086,-78.8400357162541,0.));
#1334=CARTESIAN_POINT('',(182.745756789086,-78.8400357162541,0.));
#1335=CARTESIAN_POINT('Origin',(184.345756789086,-78.8400357162541,0.));
#1336=CARTESIAN_POINT('Origin',(28.3457567890863,-79.840035716254,0.));
#1337=CARTESIAN_POINT('',(28.3457567890863,0.159964283745967,0.));
#1338=CARTESIAN_POINT('',(28.3457567890863,-79.840035716254,0.));
#1339=CARTESIAN_POINT('',(28.3457567890863,0.159964283745967,0.));
#1340=CARTESIAN_POINT('',(28.3457567890863,0.159964283745966,-25.));
#1341=CARTESIAN_POINT('',(28.3457567890863,0.159964283745967,0.));
#1342=CARTESIAN_POINT('',(28.3457567890863,-79.840035716254,-25.));
#1343=CARTESIAN_POINT('',(28.3457567890863,0.159964283745967,-25.));
#1344=CARTESIAN_POINT('',(28.3457567890863,-79.840035716254,0.));
#1345=CARTESIAN_POINT('Origin',(33.3457567890863,-79.840035716254,0.));
#1346=CARTESIAN_POINT('',(33.3457567890863,-84.8400357162541,0.));
#1347=CARTESIAN_POINT('Origin',(33.3457567890863,-79.840035716254,0.));
#1348=CARTESIAN_POINT('',(33.3457567890863,-84.8400357162541,-25.));
#1349=CARTESIAN_POINT('Origin',(33.3457567890863,-79.840035716254,-25.));
#1350=CARTESIAN_POINT('',(33.3457567890863,-84.8400357162541,0.));
#1351=CARTESIAN_POINT('Origin',(185.345756789086,-84.8400357162541,0.));
#1352=CARTESIAN_POINT('',(185.345756789086,-84.8400357162541,0.));
#1353=CARTESIAN_POINT('',(185.345756789086,-84.8400357162541,0.));
#1354=CARTESIAN_POINT('',(185.345756789086,-84.8400357162541,-25.));
#1355=CARTESIAN_POINT('',(185.345756789086,-84.8400357162541,-25.));
#1356=CARTESIAN_POINT('',(185.345756789086,-84.8400357162541,0.));
#1357=CARTESIAN_POINT('Origin',(185.345756789086,-79.840035716254,0.));
#1358=CARTESIAN_POINT('',(190.345756789086,-79.840035716254,0.));
#1359=CARTESIAN_POINT('Origin',(185.345756789086,-79.840035716254,0.));
#1360=CARTESIAN_POINT('',(190.345756789086,-79.840035716254,-25.));
#1361=CARTESIAN_POINT('Origin',(185.345756789086,-79.840035716254,-25.));
#1362=CARTESIAN_POINT('',(190.345756789086,-79.840035716254,0.));
#1363=CARTESIAN_POINT('Origin',(190.345756789086,0.159964283745971,0.));
#1364=CARTESIAN_POINT('',(190.345756789086,0.159964283745971,0.));
#1365=CARTESIAN_POINT('',(190.345756789086,0.159964283745971,0.));
#1366=CARTESIAN_POINT('',(190.345756789086,0.159964283745975,-25.));
#1367=CARTESIAN_POINT('',(190.345756789086,0.159964283745971,-25.));
#1368=CARTESIAN_POINT('',(190.345756789086,0.159964283745971,0.));
#1369=CARTESIAN_POINT('Origin',(185.345756789086,0.159964283745971,0.));
#1370=CARTESIAN_POINT('',(185.345756789086,5.15996428374597,0.));
#1371=CARTESIAN_POINT('Origin',(185.345756789086,0.159964283745971,0.));
#1372=CARTESIAN_POINT('',(185.345756789086,5.15996428374597,-25.));
#1373=CARTESIAN_POINT('Origin',(185.345756789086,0.159964283745971,-25.));
#1374=CARTESIAN_POINT('',(185.345756789086,5.15996428374597,0.));
#1375=CARTESIAN_POINT('Origin',(33.3457567890863,5.15996428374596,0.));
#1376=CARTESIAN_POINT('',(33.3457567890863,5.15996428374596,0.));
#1377=CARTESIAN_POINT('',(33.3457567890863,5.15996428374596,0.));
#1378=CARTESIAN_POINT('',(33.3457567890863,5.15996428374596,-25.));
#1379=CARTESIAN_POINT('',(33.3457567890863,5.15996428374596,-25.));
#1380=CARTESIAN_POINT('',(33.3457567890863,5.15996428374596,0.));
#1381=CARTESIAN_POINT('Origin',(33.3457567890863,0.159964283745966,0.));
#1382=CARTESIAN_POINT('Origin',(33.3457567890863,0.159964283745966,0.));
#1383=CARTESIAN_POINT('Origin',(33.3457567890863,0.159964283745966,-25.));
#1384=CARTESIAN_POINT('Origin',(109.345756789086,-39.840035716254,0.));
#1385=CARTESIAN_POINT('Origin',(109.345756789086,-39.840035716254,-25.));
#1386=CARTESIAN_POINT('Origin',(113.000001716343,-38.500000372529,-13.));
#1387=CARTESIAN_POINT('',(114.250001716343,-38.500000372529,-11.9));
#1388=CARTESIAN_POINT('Origin',(113.000001716343,-38.500000372529,-11.9));
#1389=CARTESIAN_POINT('',(114.250001716343,-38.500000372529,-11.4));
#1390=CARTESIAN_POINT('',(114.250001716343,-38.500000372529,-13.));
#1391=CARTESIAN_POINT('Origin',(113.000001716343,-38.500000372529,-11.4));
#1392=CARTESIAN_POINT('Origin',(113.000001716343,-38.500000372529,-11.4));
#1393=CARTESIAN_POINT('Origin',(113.000001716343,-38.500000372529,-13.));
#1394=CARTESIAN_POINT('',(115.000001716343,-38.500000372529,-13.));
#1395=CARTESIAN_POINT('Origin',(113.000001716343,-38.500000372529,-13.));
#1396=CARTESIAN_POINT('',(115.000001716343,-38.500000372529,-11.9));
#1397=CARTESIAN_POINT('',(115.000001716343,-38.500000372529,-13.));
#1398=CARTESIAN_POINT('Origin',(113.000001716343,-38.500000372529,-11.9));
#1399=CARTESIAN_POINT('Origin',(113.000001716343,-38.500000372529,-11.9));
#1400=CARTESIAN_POINT('Origin',(133.282531245848,-46.340035716254,-13.));
#1401=CARTESIAN_POINT('',(134.532531245848,-46.340035716254,-12.1));
#1402=CARTESIAN_POINT('Origin',(133.282531245848,-46.340035716254,-12.1));
#1403=CARTESIAN_POINT('',(134.532531245848,-46.340035716254,-10.9));
#1404=CARTESIAN_POINT('',(134.532531245848,-46.340035716254,-13.));
#1405=CARTESIAN_POINT('Origin',(133.282531245848,-46.340035716254,-10.9));
#1406=CARTESIAN_POINT('Origin',(133.282531245848,-46.340035716254,-10.9));
#1407=CARTESIAN_POINT('Origin',(133.282531245848,-46.340035716254,-13.));
#1408=CARTESIAN_POINT('',(135.282531245848,-46.340035716254,-13.));
#1409=CARTESIAN_POINT('Origin',(133.282531245848,-46.340035716254,-13.));
#1410=CARTESIAN_POINT('',(135.282531245848,-46.340035716254,-12.1));
#1411=CARTESIAN_POINT('',(135.282531245848,-46.340035716254,-13.));
#1412=CARTESIAN_POINT('Origin',(133.282531245848,-46.340035716254,-12.1));
#1413=CARTESIAN_POINT('Origin',(133.282531245848,-46.340035716254,-12.1));
#1414=CARTESIAN_POINT('Origin',(89.458505113648,-46.340035716254,-13.));
#1415=CARTESIAN_POINT('',(90.708505113648,-46.340035716254,-12.));
#1416=CARTESIAN_POINT('Origin',(89.458505113648,-46.340035716254,-12.));
#1417=CARTESIAN_POINT('',(90.708505113648,-46.340035716254,-10.5));
#1418=CARTESIAN_POINT('',(90.708505113648,-46.340035716254,-13.));
#1419=CARTESIAN_POINT('Origin',(89.458505113648,-46.340035716254,-10.5));
#1420=CARTESIAN_POINT('Origin',(89.458505113648,-46.340035716254,-10.5));
#1421=CARTESIAN_POINT('Origin',(89.458505113648,-46.340035716254,-13.));
#1422=CARTESIAN_POINT('',(91.458505113648,-46.340035716254,-13.));
#1423=CARTESIAN_POINT('Origin',(89.458505113648,-46.340035716254,-13.));
#1424=CARTESIAN_POINT('',(91.458505113648,-46.340035716254,-12.));
#1425=CARTESIAN_POINT('',(91.458505113648,-46.340035716254,-13.));
#1426=CARTESIAN_POINT('Origin',(89.458505113648,-46.340035716254,-12.));
#1427=CARTESIAN_POINT('Origin',(89.458505113648,-46.340035716254,-12.));
#1428=CARTESIAN_POINT('Origin',(60.3457567890863,-57.0000008195639,0.));
#1429=CARTESIAN_POINT('',(54.2457567890863,-57.0000008195639,-13.));
#1430=CARTESIAN_POINT('Origin',(60.3457567890863,-57.0000008195639,-13.));
#1431=CARTESIAN_POINT('',(54.2457567890863,-57.0000008195639,0.));
#1432=CARTESIAN_POINT('',(54.2457567890863,-57.0000008195639,0.));
#1433=CARTESIAN_POINT('Origin',(60.3457567890863,-57.0000008195639,0.));
#1434=CARTESIAN_POINT('Origin',(89.3249894387776,-57.840035716254,0.));
#1435=CARTESIAN_POINT('',(86.7249894387776,-57.840035716254,-13.));
#1436=CARTESIAN_POINT('Origin',(89.3249894387776,-57.840035716254,-13.));
#1437=CARTESIAN_POINT('',(86.7249894387776,-57.840035716254,0.));
#1438=CARTESIAN_POINT('',(86.7249894387776,-57.840035716254,0.));
#1439=CARTESIAN_POINT('Origin',(89.3249894387776,-57.840035716254,0.));
#1440=CARTESIAN_POINT('Origin',(113.000000968575,-27.000000372529,0.));
#1441=CARTESIAN_POINT('',(110.400000968575,-27.000000372529,-13.));
#1442=CARTESIAN_POINT('Origin',(113.000000968575,-27.000000372529,-13.));
#1443=CARTESIAN_POINT('',(110.400000968575,-27.000000372529,0.));
#1444=CARTESIAN_POINT('',(110.400000968575,-27.000000372529,0.));
#1445=CARTESIAN_POINT('Origin',(113.000000968575,-27.000000372529,0.));
#1446=CARTESIAN_POINT('Origin',(133.36652417415,-57.840035716254,0.));
#1447=CARTESIAN_POINT('',(130.76652417415,-57.840035716254,-13.));
#1448=CARTESIAN_POINT('Origin',(133.36652417415,-57.840035716254,-13.));
#1449=CARTESIAN_POINT('',(130.76652417415,-57.840035716254,0.));
#1450=CARTESIAN_POINT('',(130.76652417415,-57.840035716254,0.));
#1451=CARTESIAN_POINT('Origin',(133.36652417415,-57.840035716254,0.));
#1452=CARTESIAN_POINT('Origin',(150.345756789086,-57.0000001170806,0.));
#1453=CARTESIAN_POINT('',(144.245756789086,-57.0000001170806,-13.));
#1454=CARTESIAN_POINT('Origin',(150.345756789086,-57.0000001170806,-13.));
#1455=CARTESIAN_POINT('',(144.245756789086,-57.0000001170806,0.));
#1456=CARTESIAN_POINT('',(144.245756789086,-57.0000001170806,0.));
#1457=CARTESIAN_POINT('Origin',(150.345756789086,-57.0000001170806,0.));
#1458=CARTESIAN_POINT('Origin',(38.3457567890863,-70.840035716254,0.));
#1459=CARTESIAN_POINT('',(38.3457567890863,-70.840035716254,0.));
#1460=CARTESIAN_POINT('',(38.3457567890863,-5.84003571625404,0.));
#1461=CARTESIAN_POINT('',(38.3457567890863,-70.840035716254,0.));
#1462=CARTESIAN_POINT('',(38.3457567890863,-5.84003571625403,-13.));
#1463=CARTESIAN_POINT('',(38.3457567890863,-5.84003571625404,0.));
#1464=CARTESIAN_POINT('',(38.3457567890863,-70.840035716254,-13.));
#1465=CARTESIAN_POINT('',(38.3457567890863,-70.840035716254,-13.));
#1466=CARTESIAN_POINT('',(38.3457567890863,-70.840035716254,0.));
#1467=CARTESIAN_POINT('Origin',(41.3457567890862,-70.840035716254,0.));
#1468=CARTESIAN_POINT('',(41.3457567890862,-73.840035716254,0.));
#1469=CARTESIAN_POINT('Origin',(41.3457567890862,-70.840035716254,0.));
#1470=CARTESIAN_POINT('',(41.3457567890862,-73.840035716254,-13.));
#1471=CARTESIAN_POINT('Origin',(41.3457567890862,-70.840035716254,-13.));
#1472=CARTESIAN_POINT('',(41.3457567890862,-73.840035716254,0.));
#1473=CARTESIAN_POINT('Origin',(177.345756789086,-73.840035716254,0.));
#1474=CARTESIAN_POINT('',(177.345756789086,-73.840035716254,0.));
#1475=CARTESIAN_POINT('',(177.345756789086,-73.840035716254,0.));
#1476=CARTESIAN_POINT('',(177.345756789086,-73.840035716254,-13.));
#1477=CARTESIAN_POINT('',(177.345756789086,-73.840035716254,-13.));
#1478=CARTESIAN_POINT('',(177.345756789086,-73.840035716254,0.));
#1479=CARTESIAN_POINT('Origin',(177.345756789086,-70.840035716254,0.));
#1480=CARTESIAN_POINT('',(180.345756789086,-70.840035716254,0.));
#1481=CARTESIAN_POINT('Origin',(177.345756789086,-70.840035716254,0.));
#1482=CARTESIAN_POINT('',(180.345756789086,-70.840035716254,-13.));
#1483=CARTESIAN_POINT('Origin',(177.345756789086,-70.840035716254,-13.));
#1484=CARTESIAN_POINT('',(180.345756789086,-70.840035716254,0.));
#1485=CARTESIAN_POINT('Origin',(180.345756789086,-5.84003571625411,0.));
#1486=CARTESIAN_POINT('',(180.345756789086,-5.84003571625411,0.));
#1487=CARTESIAN_POINT('',(180.345756789086,-5.84003571625411,0.));
#1488=CARTESIAN_POINT('',(180.345756789086,-5.8400357162541,-13.));
#1489=CARTESIAN_POINT('',(180.345756789086,-5.84003571625411,-13.));
#1490=CARTESIAN_POINT('',(180.345756789086,-5.84003571625411,0.));
#1491=CARTESIAN_POINT('Origin',(177.345756789086,-5.84003571625411,0.));
#1492=CARTESIAN_POINT('',(177.345756789086,-2.84003571625406,0.));
#1493=CARTESIAN_POINT('Origin',(177.345756789086,-5.84003571625411,0.));
#1494=CARTESIAN_POINT('',(177.345756789086,-2.84003571625406,-13.));
#1495=CARTESIAN_POINT('Origin',(177.345756789086,-5.84003571625411,-13.));
#1496=CARTESIAN_POINT('',(177.345756789086,-2.84003571625406,0.));
#1497=CARTESIAN_POINT('Origin',(41.3457567890863,-2.84003571625404,0.));
#1498=CARTESIAN_POINT('',(41.3457567890863,-2.84003571625404,0.));
#1499=CARTESIAN_POINT('',(41.3457567890863,-2.84003571625404,0.));
#1500=CARTESIAN_POINT('',(41.3457567890863,-2.84003571625404,-13.));
#1501=CARTESIAN_POINT('',(41.3457567890863,-2.84003571625404,-13.));
#1502=CARTESIAN_POINT('',(41.3457567890863,-2.84003571625404,0.));
#1503=CARTESIAN_POINT('Origin',(41.3457567890863,-5.84003571625404,0.));
#1504=CARTESIAN_POINT('Origin',(41.3457567890863,-5.84003571625404,0.));
#1505=CARTESIAN_POINT('Origin',(41.3457567890863,-5.84003571625404,-13.));
#1506=CARTESIAN_POINT('Origin',(109.345756789086,-38.340035716254,0.));
#1507=CARTESIAN_POINT('Origin',(109.345756789086,-38.340035716254,-13.));
#1508=UNCERTAINTY_MEASURE_WITH_UNIT(LENGTH_MEASURE(0.01),#1512,
'DISTANCE_ACCURACY_VALUE',
'Maximum model space distance between geometric entities at asserted c
onnectivities');
#1509=UNCERTAINTY_MEASURE_WITH_UNIT(LENGTH_MEASURE(0.01),#1512,
'DISTANCE_ACCURACY_VALUE',
'Maximum model space distance between geometric entities at asserted c
onnectivities');
#1510=(
GEOMETRIC_REPRESENTATION_CONTEXT(3)
GLOBAL_UNCERTAINTY_ASSIGNED_CONTEXT((#1508))
GLOBAL_UNIT_ASSIGNED_CONTEXT((#1512,#1514,#1515))
REPRESENTATION_CONTEXT('','3D')
);
#1511=(
GEOMETRIC_REPRESENTATION_CONTEXT(3)
GLOBAL_UNCERTAINTY_ASSIGNED_CONTEXT((#1509))
GLOBAL_UNIT_ASSIGNED_CONTEXT((#1512,#1514,#1515))
REPRESENTATION_CONTEXT('','3D')
);
#1512=(
LENGTH_UNIT()
NAMED_UNIT(*)
SI_UNIT(.MILLI.,.METRE.)
);
#1513=(
LENGTH_UNIT()
NAMED_UNIT(*)
SI_UNIT($,.METRE.)
);
#1514=(
NAMED_UNIT(*)
PLANE_ANGLE_UNIT()
SI_UNIT($,.RADIAN.)
);
#1515=(
NAMED_UNIT(*)
SI_UNIT($,.STERADIAN.)
SOLID_ANGLE_UNIT()
);
#1516=SHAPE_DEFINITION_REPRESENTATION(#1517,#1518);
#1517=PRODUCT_DEFINITION_SHAPE('',$,#1520);
#1518=SHAPE_REPRESENTATION('',(#888),#1510);
#1519=PRODUCT_DEFINITION_CONTEXT('part definition',#1524,'design');
#1520=PRODUCT_DEFINITION('2026-08-12-17-52-57-957','Top_Part',#1521,#1519);
#1521=PRODUCT_DEFINITION_FORMATION('',$,#1526);
#1522=PRODUCT_RELATED_PRODUCT_CATEGORY('Top_Part','Top_Part',(#1526));
#1523=APPLICATION_PROTOCOL_DEFINITION('international standard',
'automotive_design',2009,#1524);
#1524=APPLICATION_CONTEXT(
'Core Data for Automotive Mechanical Design Process');
#1525=PRODUCT_CONTEXT('part definition',#1524,'mechanical');
#1526=PRODUCT('2026-08-12-17-52-57-957','Top_Part',$,(#1525));
#1527=PRESENTATION_STYLE_ASSIGNMENT((#1528));
#1528=SURFACE_STYLE_USAGE(.BOTH.,#1529);
#1529=SURFACE_SIDE_STYLE('',(#1530));
#1530=SURFACE_STYLE_FILL_AREA(#1531);
#1531=FILL_AREA_STYLE('Steel - Satin',(#1532));
#1532=FILL_AREA_STYLE_COLOUR('Steel - Satin',#1533);
#1533=COLOUR_RGB('Steel - Satin',0.627450980392157,0.627450980392157,0.627450980392157);
ENDSEC;
END-ISO-10303-21;
